<svg xmlns="http://www.w3.org/2000/svg" xmlns:xlink="http://www.w3.org/1999/xlink" viewBox="0 0 342.01 269.11"><style><![CDATA[.A{isolation:isolate}.Q,.Cn,.Cp,.Cq,.B,.Cr,.Cs,.DD,.D{mix-blend-mode:overlay}.DG,.DH,.DI,.DJ,.DK,.DL,.DM,.DN,.DO,.DP,.E{mix-blend-mode:color-dodge}.U{mix-blend-mode:multiply}.Cx,.Cy,.l,.m{mix-blend-mode:screen}.DQ{fill:#fff}.DR{opacity:.4}.DS{fill:#1ce5ff}.DT{fill:#524c7c}.DU{opacity:.74}.DV{fill:#4e3573}.DW{opacity:.57}.DX{fill:#212972}.DY{fill:#ffbe3d}]]></style><defs><radialGradient id="A" cx="171.01" cy="-78.37" r="171.01" gradientTransform="translate(0 206.73) scale(1 0.67)" xlink:href="#EH"><stop offset="0" stop-color="#00cfff"/><stop offset=".1" stop-color="#07bbe7" stop-opacity=".88"/><stop offset=".44" stop-color="#1c7d9c" stop-opacity=".5"/><stop offset=".71" stop-color="#2c4f65" stop-opacity=".23"/><stop offset=".9" stop-color="#353343" stop-opacity=".06"/><stop offset="1" stop-color="#392836" stop-opacity="0"/></radialGradient><linearGradient id="B" x1="148.88" y1="92.76" x2="248.66" y2="92.76" xlink:href="#EH"><stop offset="0" stop-color="#1ab1e5"/><stop offset=".47" stop-color="#63b8ea"/><stop offset=".7" stop-color="#89bcec"/></linearGradient><linearGradient id="C" x1="85.65" y1="173.58" x2="244.94" y2="173.58" xlink:href="#B"/><linearGradient id="D" x1="174.51" y1="294.03" x2="129.72" y2="80.21" xlink:href="#EH"><stop offset="0" stop-color="#1ae5ff"/><stop offset=".26" stop-color="#64e8f9"/><stop offset=".7" stop-color="#eaeeee"/></linearGradient><linearGradient id="E" x1="224.08" y1="116.91" x2="129.03" y2="173.63" xlink:href="#D"/><linearGradient id="F" x1="147.64" y1="93.4" x2="247.07" y2="93.4" xlink:href="#D"/><linearGradient id="G" x1="197.36" y1="64.81" x2="197.36" y2="188.68" xlink:href="#D"/><linearGradient id="H" x1="230.75" y1="176.38" x2="175.55" y2="36.57" xlink:href="#EH"><stop offset="0" stop-color="#00ebff"/><stop offset=".13" stop-color="#25d0f8"/><stop offset=".57" stop-color="#997ae0"/><stop offset=".86" stop-color="#e244d2"/><stop offset="1" stop-color="#ff2fcc"/></linearGradient><linearGradient id="I" x1="197.36" y1="64.81" x2="197.36" y2="188.68" xlink:href="#EH"><stop offset="0" stop-color="#c7edff"/><stop offset=".7" stop-color="#eaeeee"/></linearGradient><linearGradient id="J" x1="202.25" y1="177.42" x2="148.69" y2="41.72" xlink:href="#H"/><linearGradient id="K" x1="164.8" y1="54.86" x2="178.52" y2="163.58" xlink:href="#H"/><linearGradient id="L" x1="164.43" y1="54.9" x2="178.16" y2="163.63" xlink:href="#H"/><linearGradient id="M" x1="163.97" y1="54.96" x2="177.69" y2="163.69" xlink:href="#H"/><linearGradient id="N" x1="163.4" y1="55.04" x2="177.12" y2="163.76" xlink:href="#H"/><linearGradient id="O" x1="161.99" y1="55.21" x2="175.71" y2="163.94" xlink:href="#H"/><linearGradient id="P" x1="161.15" y1="55.32" x2="174.88" y2="164.04" xlink:href="#H"/><linearGradient id="Q" x1="158.19" y1="55.69" x2="171.91" y2="164.42" xlink:href="#H"/><linearGradient id="R" x1="154.67" y1="56.14" x2="168.4" y2="164.86" xlink:href="#H"/><linearGradient id="S" x1="153.41" y1="56.3" x2="167.13" y2="165.02" xlink:href="#H"/><linearGradient id="T" x1="152.12" y1="56.46" x2="165.84" y2="165.18" xlink:href="#H"/><linearGradient id="U" x1="150.8" y1="56.63" x2="164.52" y2="165.35" xlink:href="#H"/><linearGradient id="V" x1="155.17" y1="56.07" x2="168.89" y2="164.8" xlink:href="#H"/><linearGradient id="W" x1="149.47" y1="56.79" x2="163.19" y2="165.52" xlink:href="#H"/><linearGradient id="X" x1="148.13" y1="56.96" x2="161.85" y2="165.69" xlink:href="#H"/><linearGradient id="Y" x1="146.79" y1="57.13" x2="160.51" y2="165.86" xlink:href="#H"/><linearGradient id="Z" x1="144.14" y1="57.46" x2="157.86" y2="166.19" xlink:href="#H"/><linearGradient id="a" x1="142.85" y1="57.63" x2="156.58" y2="166.35" xlink:href="#H"/><linearGradient id="b" x1="147.32" y1="57.06" x2="161.04" y2="165.79" xlink:href="#H"/><linearGradient id="c" x1="141.6" y1="57.79" x2="155.32" y2="166.51" xlink:href="#H"/><linearGradient id="d" x1="145.99" y1="57.23" x2="159.71" y2="165.95" xlink:href="#H"/><linearGradient id="e" x1="140.38" y1="57.94" x2="154.11" y2="166.66" xlink:href="#H"/><linearGradient id="f" x1="138.11" y1="58.22" x2="151.83" y2="166.95" xlink:href="#H"/><linearGradient id="g" x1="140.87" y1="57.88" x2="154.59" y2="166.6" xlink:href="#H"/><linearGradient id="h" x1="136.09" y1="58.48" x2="149.82" y2="167.21" xlink:href="#H"/><linearGradient id="i" x1="136.48" y1="58.43" x2="150.2" y2="167.15" xlink:href="#H"/><linearGradient id="j" x1="132.46" y1="58.94" x2="146.18" y2="167.66" xlink:href="#H"/><linearGradient id="k" x1="134.7" y1="58.66" x2="148.42" y2="167.38" xlink:href="#H"/><linearGradient id="l" x1="131.43" y1="59.07" x2="145.15" y2="167.8" xlink:href="#H"/><linearGradient id="m" x1="131.29" y1="59.09" x2="145.01" y2="167.81" xlink:href="#H"/><linearGradient id="n" x1="131.26" y1="59.09" x2="144.98" y2="167.81" xlink:href="#H"/><linearGradient id="o" x1="131.52" y1="59.06" x2="145.24" y2="167.79" xlink:href="#H"/><linearGradient id="p" x1="131.8" y1="59.02" x2="145.52" y2="167.75" xlink:href="#H"/><linearGradient id="q" x1="132.18" y1="58.97" x2="145.9" y2="167.7" xlink:href="#H"/><linearGradient id="r" x1="132.67" y1="58.91" x2="146.39" y2="167.64" xlink:href="#H"/><linearGradient id="s" x1="133.25" y1="58.84" x2="146.97" y2="167.57" xlink:href="#H"/><linearGradient id="t" x1="133.93" y1="58.75" x2="147.65" y2="167.48" xlink:href="#H"/><linearGradient id="u" x1="164.92" y1="54.84" x2="178.64" y2="163.57" xlink:href="#H"/><linearGradient id="v" x1="165.14" y1="54.81" x2="178.87" y2="163.54" xlink:href="#H"/><linearGradient id="w" x1="165.26" y1="54.8" x2="178.98" y2="163.52" xlink:href="#H"/><linearGradient id="x" x1="165.27" y1="54.8" x2="178.99" y2="163.52" xlink:href="#H"/><linearGradient id="y" x1="165.06" y1="54.82" x2="178.78" y2="163.55" xlink:href="#H"/><linearGradient id="z" x1="165.18" y1="54.81" x2="178.9" y2="163.54" xlink:href="#H"/><linearGradient id="AA" x1="139.91" y1="58" x2="153.63" y2="166.72" xlink:href="#H"/><linearGradient id="AB" x1="140.37" y1="57.94" x2="154.1" y2="166.67" xlink:href="#H"/><linearGradient id="AC" x1="153.36" y1="56.3" x2="167.09" y2="165.03" xlink:href="#H"/><linearGradient id="AD" x1="134.38" y1="58.7" x2="148.1" y2="167.42" xlink:href="#H"/><linearGradient id="AE" x1="135.2" y1="58.59" x2="148.92" y2="167.32" xlink:href="#H"/><linearGradient id="AF" x1="133.65" y1="58.79" x2="147.37" y2="167.52" xlink:href="#H"/><linearGradient id="AG" x1="133.01" y1="58.86" x2="146.73" y2="167.6" xlink:href="#H"/><linearGradient id="AH" x1="137.07" y1="58.36" x2="150.79" y2="167.08" xlink:href="#H"/><linearGradient id="AI" x1="132.01" y1="59" x2="145.74" y2="167.72" xlink:href="#H"/><linearGradient id="AJ" x1="139.22" y1="58.09" x2="152.94" y2="166.81" xlink:href="#H"/><linearGradient id="AK" x1="145.45" y1="57.3" x2="159.18" y2="166.02" xlink:href="#H"/><linearGradient id="AL" x1="141.15" y1="57.84" x2="154.87" y2="166.57" xlink:href="#H"/><linearGradient id="AM" x1="140.09" y1="57.97" x2="153.82" y2="166.7" xlink:href="#H"/><linearGradient id="AN" x1="141.77" y1="57.76" x2="155.49" y2="166.49" xlink:href="#H"/><linearGradient id="AO" x1="142.45" y1="57.68" x2="156.18" y2="166.4" xlink:href="#H"/><linearGradient id="AP" x1="139.33" y1="58.07" x2="153.05" y2="166.8" xlink:href="#H"/><linearGradient id="AQ" x1="143.19" y1="57.58" x2="156.91" y2="166.31" xlink:href="#H"/><linearGradient id="AR" x1="139.06" y1="58.11" x2="152.78" y2="166.83" xlink:href="#H"/><linearGradient id="AS" x1="144.78" y1="57.38" x2="158.5" y2="166.11" xlink:href="#H"/><linearGradient id="AT" x1="145.63" y1="57.28" x2="159.35" y2="166" xlink:href="#H"/><linearGradient id="AU" x1="138.76" y1="58.14" x2="152.48" y2="166.87" xlink:href="#H"/><linearGradient id="AV" x1="146.5" y1="57.17" x2="160.22" y2="165.89" xlink:href="#H"/><linearGradient id="AW" x1="138.83" y1="58.13" x2="152.55" y2="166.86" xlink:href="#H"/><linearGradient id="AX" x1="147.38" y1="57.05" x2="161.11" y2="165.78" xlink:href="#H"/><linearGradient id="AY" x1="148.28" y1="56.94" x2="162" y2="165.67" xlink:href="#H"/><linearGradient id="AZ" x1="149.17" y1="56.83" x2="162.89" y2="165.56" xlink:href="#H"/><linearGradient id="Aa" x1="150.06" y1="56.72" x2="163.78" y2="165.44" xlink:href="#H"/><linearGradient id="Ab" x1="150.92" y1="56.61" x2="164.65" y2="165.33" xlink:href="#H"/><linearGradient id="Ac" x1="151.77" y1="56.5" x2="165.49" y2="165.23" xlink:href="#H"/><linearGradient id="Ad" x1="139.52" y1="58.05" x2="153.24" y2="166.77" xlink:href="#H"/><linearGradient id="Ae" x1="140.91" y1="57.87" x2="154.63" y2="166.6" xlink:href="#H"/><linearGradient id="Af" x1="152.59" y1="56.4" x2="166.31" y2="165.12" xlink:href="#H"/><linearGradient id="Ag" x1="141.51" y1="57.8" x2="155.23" y2="166.52" xlink:href="#H"/><linearGradient id="Ah" x1="142.17" y1="57.71" x2="155.89" y2="166.44" xlink:href="#H"/><linearGradient id="Ai" x1="142.88" y1="57.62" x2="156.6" y2="166.35" xlink:href="#H"/><linearGradient id="Aj" x1="154.09" y1="56.21" x2="167.82" y2="164.93" xlink:href="#H"/><linearGradient id="Ak" x1="154.78" y1="56.12" x2="168.5" y2="164.85" xlink:href="#H"/><linearGradient id="Al" x1="143.64" y1="57.53" x2="157.36" y2="166.25" xlink:href="#H"/><linearGradient id="Am" x1="155.4" y1="56.04" x2="169.12" y2="164.77" xlink:href="#H"/><linearGradient id="An" x1="144.44" y1="57.43" x2="158.16" y2="166.15" xlink:href="#H"/><linearGradient id="Ao" x1="145.27" y1="57.32" x2="159" y2="166.05" xlink:href="#H"/><linearGradient id="Ap" x1="146.14" y1="57.21" x2="159.86" y2="165.94" xlink:href="#H"/><linearGradient id="Aq" x1="155.96" y1="55.97" x2="169.68" y2="164.7" xlink:href="#H"/><linearGradient id="Ar" x1="156.87" y1="55.86" x2="170.59" y2="164.58" xlink:href="#H"/><linearGradient id="As" x1="147.02" y1="57.1" x2="160.74" y2="165.83" xlink:href="#H"/><linearGradient id="At" x1="156.45" y1="55.91" x2="170.17" y2="164.64" xlink:href="#H"/><linearGradient id="Au" x1="157.21" y1="55.81" x2="170.94" y2="164.54" xlink:href="#H"/><linearGradient id="Av" x1="147.91" y1="56.99" x2="161.63" y2="165.72" xlink:href="#H"/><linearGradient id="Aw" x1="157.48" y1="55.78" x2="171.2" y2="164.51" xlink:href="#H"/><linearGradient id="Ax" x1="148.8" y1="56.88" x2="162.52" y2="165.6" xlink:href="#H"/><linearGradient id="Ay" x1="148.27" y1="56.94" x2="161.99" y2="165.67" xlink:href="#H"/><linearGradient id="Az" x1="157.66" y1="55.76" x2="171.38" y2="164.49" xlink:href="#H"/><linearGradient id="BA" x1="149.69" y1="56.76" x2="163.42" y2="165.49" xlink:href="#H"/><linearGradient id="BB" x1="150.57" y1="56.65" x2="164.29" y2="165.38" xlink:href="#H"/><linearGradient id="BC" x1="157.78" y1="55.74" x2="171.5" y2="164.47" xlink:href="#H"/><linearGradient id="BD" x1="157.73" y1="55.75" x2="171.45" y2="164.48" xlink:href="#H"/><linearGradient id="BE" x1="152.26" y1="56.44" x2="165.98" y2="165.17" xlink:href="#H"/><linearGradient id="BF" x1="148.03" y1="56.97" x2="161.75" y2="165.7" xlink:href="#H"/><linearGradient id="BG" x1="157.6" y1="55.76" x2="171.32" y2="164.49" xlink:href="#H"/><linearGradient id="BH" x1="153.05" y1="56.34" x2="166.77" y2="165.07" xlink:href="#H"/><linearGradient id="BI" x1="157.38" y1="55.79" x2="171.1" y2="164.52" xlink:href="#H"/><linearGradient id="BJ" x1="157.08" y1="55.83" x2="170.8" y2="164.55" xlink:href="#H"/><linearGradient id="BK" x1="154.5" y1="56.16" x2="168.22" y2="164.88" xlink:href="#H"/><linearGradient id="BL" x1="156.7" y1="55.88" x2="170.43" y2="164.61" xlink:href="#H"/><linearGradient id="BM" x1="155.15" y1="56.08" x2="168.87" y2="164.8" xlink:href="#H"/><linearGradient id="BN" x1="156.25" y1="55.93" x2="169.98" y2="164.66" xlink:href="#H"/><linearGradient id="BO" x1="157.74" y1="55.75" x2="171.47" y2="164.47" xlink:href="#H"/><linearGradient id="BP" x1="148.01" y1="56.98" x2="161.73" y2="165.7" xlink:href="#H"/><linearGradient id="BQ" x1="157.98" y1="55.72" x2="171.71" y2="164.44" xlink:href="#H"/><linearGradient id="BR" x1="140.59" y1="57.91" x2="154.31" y2="166.64" xlink:href="#H"/><linearGradient id="BS" x1="139.67" y1="58.03" x2="153.39" y2="166.75" xlink:href="#H"/><linearGradient id="BT" x1="143.96" y1="57.49" x2="157.69" y2="166.21" xlink:href="#H"/><linearGradient id="BU" x1="138.88" y1="58.13" x2="152.6" y2="166.85" xlink:href="#H"/><linearGradient id="BV" x1="138.77" y1="58.14" x2="152.5" y2="166.87" xlink:href="#H"/><linearGradient id="BW" x1="138.98" y1="58.12" x2="152.7" y2="166.84" xlink:href="#H"/><linearGradient id="BX" x1="139.21" y1="58.09" x2="152.93" y2="166.81" xlink:href="#H"/><linearGradient id="BY" x1="135.55" y1="58.55" x2="149.27" y2="167.28" xlink:href="#H"/><linearGradient id="BZ" x1="155.9" y1="55.98" x2="169.62" y2="164.71" xlink:href="#H"/><linearGradient id="Ba" x1="157.07" y1="55.83" x2="170.79" y2="164.56" xlink:href="#H"/><linearGradient id="Bb" x1="137.48" y1="58.3" x2="151.21" y2="167.03" xlink:href="#H"/><linearGradient id="Bc" x1="138.55" y1="58.17" x2="152.28" y2="166.89" xlink:href="#H"/><linearGradient id="Bd" x1="159.25" y1="55.56" x2="172.97" y2="164.28" xlink:href="#H"/><linearGradient id="Be" x1="139.69" y1="58.02" x2="153.41" y2="166.76" xlink:href="#H"/><linearGradient id="Bf" x1="160.24" y1="55.43" x2="173.96" y2="164.16" xlink:href="#H"/><linearGradient id="Bg" x1="142.1" y1="57.72" x2="155.82" y2="166.45" xlink:href="#H"/><linearGradient id="Bh" x1="143.37" y1="57.56" x2="157.09" y2="166.28" xlink:href="#H"/><linearGradient id="Bi" x1="144.67" y1="57.4" x2="158.39" y2="166.13" xlink:href="#H"/><linearGradient id="Bj" x1="151.42" y1="56.55" x2="165.15" y2="165.27" xlink:href="#H"/><linearGradient id="Bk" x1="153.8" y1="56.25" x2="167.52" y2="164.97" xlink:href="#H"/><linearGradient id="Bl" x1="148.66" y1="56.89" x2="162.39" y2="165.62" xlink:href="#H"/><linearGradient id="Bm" x1="155.73" y1="56" x2="169.46" y2="164.73" xlink:href="#H"/><linearGradient id="Bn" x1="150" y1="56.73" x2="163.73" y2="165.45" xlink:href="#H"/><linearGradient id="Bo" x1="151.33" y1="56.56" x2="165.05" y2="165.29" xlink:href="#H"/><linearGradient id="Bp" x1="152.64" y1="56.39" x2="166.37" y2="165.12" xlink:href="#H"/><linearGradient id="Bq" x1="153.92" y1="56.23" x2="167.65" y2="164.95" xlink:href="#H"/><linearGradient id="Br" x1="156.38" y1="55.92" x2="170.1" y2="164.64" xlink:href="#H"/><linearGradient id="Bs" x1="157.53" y1="55.77" x2="171.25" y2="164.5" xlink:href="#H"/><linearGradient id="Bt" x1="164.6" y1="54.88" x2="178.32" y2="163.61" xlink:href="#H"/><linearGradient id="Bu" x1="158.87" y1="55.61" x2="172.59" y2="164.33" xlink:href="#H"/><linearGradient id="Bv" x1="158.63" y1="55.64" x2="172.35" y2="164.36" xlink:href="#H"/><linearGradient id="Bw" x1="164.17" y1="54.94" x2="177.89" y2="163.66" xlink:href="#H"/><linearGradient id="Bx" x1="159.66" y1="55.51" x2="173.38" y2="164.23" xlink:href="#H"/><linearGradient id="By" x1="163.64" y1="55" x2="177.36" y2="163.73" xlink:href="#H"/><linearGradient id="Bz" x1="160.62" y1="55.38" x2="174.34" y2="164.11" xlink:href="#H"/><linearGradient id="CA" x1="163.02" y1="55.08" x2="176.74" y2="163.81" xlink:href="#H"/><linearGradient id="CB" x1="161.5" y1="55.27" x2="175.22" y2="164" xlink:href="#H"/><linearGradient id="CC" x1="162.3" y1="55.17" x2="176.03" y2="163.9" xlink:href="#H"/><linearGradient id="CD" x1="148.31" y1="56.94" x2="162.03" y2="165.66" xlink:href="#H"/><linearGradient id="CE" x1="162.74" y1="55.11" x2="176.47" y2="163.84" xlink:href="#H"/><linearGradient id="CF" x1="131.67" y1="59.04" x2="145.39" y2="167.77" xlink:href="#H"/><linearGradient id="CG" x1="131.34" y1="59.08" x2="145.06" y2="167.81" xlink:href="#H"/><linearGradient id="CH" x1="38.1" y1="114.7" x2="38.1" y2="148.77" xlink:href="#EH"><stop offset="0" stop-color="#282a57" stop-opacity="0"/><stop offset=".03" stop-color="#353761" stop-opacity=".06"/><stop offset=".14" stop-color="#646686" stop-opacity=".28"/><stop offset=".26" stop-color="#8d8fa6" stop-opacity=".47"/><stop offset=".37" stop-color="#b0b1c2" stop-opacity=".63"/><stop offset=".49" stop-color="#cdcdd8" stop-opacity=".77"/><stop offset=".61" stop-color="#e3e3e9" stop-opacity=".87"/><stop offset=".73" stop-color="#f3f3f5" stop-opacity=".94"/><stop offset=".86" stop-color="#fcfcfd" stop-opacity="1"/><stop offset="1" stop-color="#fff"/></linearGradient><linearGradient id="CI" x1="63.26" y1="188.63" x2="63.26" y2="195.13" xlink:href="#CH"/><linearGradient id="CJ" x1="76.28" y1="167.17" x2="76.28" y2="173.66" xlink:href="#CH"/><linearGradient id="CK" x1="253.39" y1="170.06" x2="200.26" y2="243.25" xlink:href="#D"/><linearGradient id="CL" x1="225.28" y1="159.78" x2="220.91" y2="212.71" xlink:href="#EH"><stop offset="0" stop-color="#ffe900"/><stop offset="1" stop-color="#ff13bd"/></linearGradient><linearGradient id="CM" x1="230.12" y1="144.18" x2="210.64" y2="193.52" xlink:href="#H"/><linearGradient id="CN" x1="251.41" y1="120.13" x2="231.05" y2="171.72" xlink:href="#H"/><linearGradient id="CO" x1="103.55" y1="220.61" x2="160.84" y2="220.61" gradientTransform="matrix(1, 0, 0, 1, 0, 0)" xlink:href="#A"/><linearGradient id="CP" x1="132.18" y1="214.31" x2="132.18" y2="255.15" xlink:href="#EH"><stop offset="0" stop-color="#05ccff"/><stop offset=".2" stop-color="#05c7ff"/><stop offset=".44" stop-color="#05b8ff"/><stop offset=".71" stop-color="#04a0ff"/><stop offset=".99" stop-color="#047eff"/><stop offset="1" stop-color="#047cff"/></linearGradient><linearGradient id="CQ" x1="117.08" y1="220.61" x2="147.31" y2="220.61" gradientTransform="matrix(1, 0, 0, 1, 0, 0)" xlink:href="#A"/><linearGradient id="CR" x1="132.4" y1="168.79" x2="132.4" y2="204.14" xlink:href="#CH"/><linearGradient id="CS" x1="233.17" y1="49.37" x2="236.17" y2="49.37" xlink:href="#I"/><linearGradient id="CT" x1="265.19" y1="117.63" x2="268.19" y2="117.63" xlink:href="#I"/><radialGradient id="CU" cx="200.21" cy="18.15" r="5.52" xlink:href="#EH"><stop offset="0" stop-color="#fff"/><stop offset=".19" stop-color="#bebebe"/><stop offset=".41" stop-color="#7b7b7b"/><stop offset=".61" stop-color="#464646"/><stop offset=".78" stop-color="#202020"/><stop offset=".91" stop-color="#090909"/><stop offset="1"/></radialGradient><radialGradient id="CV" cx="262.85" cy="56.15" xlink:href="#CU"/><radialGradient id="CW" cx="297.68" cy="147.64" r="6.98" xlink:href="#CU"/><radialGradient id="CX" cx="62.81" cy="46.3" r="2.35" xlink:href="#CU"/><radialGradient id="CY" cx="43.28" cy="97.13" r="3.82" xlink:href="#CU"/><radialGradient id="CZ" cx="286.6" cy="178.94" r="3.82" xlink:href="#CU"/><radialGradient id="Ca" cx="122.16" cy="200.58" r="3.82" xlink:href="#CU"/><radialGradient id="Cb" cx="35.6" cy="144.11" r="3.82" xlink:href="#CU"/><radialGradient id="Cc" cx="135.36" cy="191.08" r="1.91" xlink:href="#CU"/><radialGradient id="Cd" cx="136.17" cy="21.66" r="6.68" xlink:href="#CU"/><path id="Ce" d="M125.56 167.82l14.74 8.05a.43.43 0 0 1 0 .81l-16.16-8.83a1.51 1.51 0 0 1 1.42-.03z"/><path id="Cf" d="M159.05 111.8l76.4 41.75 1.02-.62-76.4-41.75-1.02.62z"/><path id="Cg" d="M151 30.48l90.84 49.65a6.58 6.58 0 0 1 3.16 5.09l1.63 69.35c0 1.9-1.3 2.7-3 1.78l-90.8-49.65a6.6 6.6 0 0 1-3.12-5.09l-1.62-69.35c-.1-1.9 1.28-2.7 2.9-1.78z"/><path id="Ch" d="M143.64,165.62l16.2,8.85-6.57,4a3,3,0,0,1-2.66.06l-14.85-8.12Z"/><path id="Ci" d="M143.12 165.34l-7.88 4.8L120.4 162c-.75-.4-.77-1.1 0-1.54l6.57-4z"/><path id="Cj" d="M223.2 161.8l4.52 2.48a1.18 1.18 0 0 0 1.06-.07l4.22-2.57c.3-.2.34-.47.06-.62l-4.52-2.47a1.18 1.18 0 0 0-1.06.07l-4.22 2.57c-.26.2-.34.46-.06.6z"/><path id="Ck" d="M217.08 158.47l4.52 2.47a1.2 1.2 0 0 0 1.07-.07l4.2-2.56c.3-.2.34-.47.06-.62l-4.52-2.47a1.18 1.18 0 0 0-1.06.07l-4.2 2.57c-.32.14-.34.46-.07.6z"/><path id="Cl" d="M211 155.13l4.52 2.47a1.18 1.18 0 0 0 1.06-.07l4.22-2.57c.3-.2.33-.46.06-.6l-4.52-2.47a1.2 1.2 0 0 0-1.07.07L211 154.5c-.28.2-.3.5 0 .62z"/><path id="Cm" d="M204.85 151.8l4.52 2.47a1.18 1.18 0 0 0 1.06-.07l4.22-2.57c.3-.2.34-.46.06-.62l-4.52-2.47a1.18 1.18 0 0 0-1.06.07l-4.22 2.57c-.3.2-.34.46-.06.62z"/><path id="Cn" d="M198.73 148.44l4.52 2.47a1.2 1.2 0 0 0 1.07-.07l4.2-2.56c.3-.2.34-.47.06-.62l-4.52-2.47a1.18 1.18 0 0 0-1.06.07l-4.2 2.57c-.32.17-.34.46-.07.6z"/><path id="Co" d="M192.62 145.1l4.52 2.47a1.18 1.18 0 0 0 1.06-.07l4.22-2.57c.3-.18.33-.46.06-.6l-4.48-2.47a1.2 1.2 0 0 0-1.07.07l-4.2 2.56c-.35.2-.38.52-.1.62z"/><path id="Cp" d="M186.5 141.76l4.52 2.47a1.18 1.18 0 0 0 1.06-.07l4.22-2.57c.3-.2.34-.46.06-.6l-4.52-2.48a1.18 1.18 0 0 0-1.06.07l-4.22 2.57c-.3.2-.34.47-.06.62z"/><path id="Cq" d="M180.38 138.4l4.52 2.47a1.16 1.16 0 0 0 1.07-.06l4.2-2.57c.3-.2.34-.47.06-.62l-4.52-2.47a1.18 1.18 0 0 0-1.06.07l-4.2 2.57c-.32.2-.34.46-.07.6z"/><path id="Cr" d="M174.27 135.07l4.52 2.47a1.18 1.18 0 0 0 1.06-.07l4.22-2.56c.3-.2.33-.47.06-.62l-4.52-2.47a1.2 1.2 0 0 0-1.07.07l-4.2 2.57c-.33.18-.33.46-.06.6z"/><path id="Cs" d="M168.15 131.73l4.52 2.47a1.18 1.18 0 0 0 1.06-.07l4.22-2.57c.3-.2.34-.46.06-.6l-4.52-2.47a1.21 1.21 0 0 0-1.06.06l-4.22 2.57c-.3.2-.34.47-.06.62z"/><path id="Ct" d="M162 128.4l4.52 2.47a1.2 1.2 0 0 0 1.07-.07l4.2-2.57c.3-.2.34-.47.06-.62l-4.52-2.47a1.18 1.18 0 0 0-1.06.07l-4.2 2.57c-.3.23-.3.46-.07.62z"/><path id="Cu" d="M155.92 125l4.52 2.47a1.18 1.18 0 0 0 1.06-.07l4.22-2.56c.3-.2.33-.47.06-.62l-4.52-2.47a1.2 1.2 0 0 0-1.07.07l-4.2 2.6c-.33.2-.36.46-.08.57z"/><path id="Cv" d="M149.8 121.7l4.52 2.47a1.18 1.18 0 0 0 1.06-.07l4.22-2.57c.3-.2.34-.46.06-.6l-4.52-2.47a1.18 1.18 0 0 0-1.06.07l-4.22 2.56c-.3.2-.34.47-.06.62z"/><path id="Cw" d="M140.92 116.85l7.28 4a1.2 1.2 0 0 0 1.07-.07l4.2-2.57c.3-.2.34-.46.06-.6l-7.28-4a1.18 1.18 0 0 0-1.06.07l-4.2 2.56c-.33.2-.36.47-.08.62z"/><path id="Cx" d="M144.86 119.67l-4.52-2.47a1.18 1.18 0 0 0-1.06.07l-4.22 2.56c-.3.2-.33.47-.06.62l4.52 2.47a1.2 1.2 0 0 0 1.07-.07l4.2-2.57c.3-.2.34-.46.06-.6z"/><path id="Cy" d="M151 123l-4.52-2.47a1.18 1.18 0 0 0-1.06.07l-4.22 2.57c-.3.2-.34.46-.06.6l4.52 2.47a1.18 1.18 0 0 0 1.06-.07l4.22-2.56c.3-.18.32-.46.06-.62z"/><path id="Cz" d="M157.1 126.35l-4.52-2.47a1.2 1.2 0 0 0-1.07.07l-4.2 2.57c-.3.2-.34.46-.06.62l4.52 2.47a1.18 1.18 0 0 0 1.06-.07L157 127c.35-.22.37-.5.1-.65z"/><path id="DA" d="M163.2 129.7l-4.52-2.47a1.18 1.18 0 0 0-1.06.06l-4.2 2.57c-.32.2-.34.47-.07.62l4.52 2.47a1.2 1.2 0 0 0 1.07-.07l4.2-2.57c.3-.2.34-.46.06-.6z"/><path id="DB" d="M169.33 133l-4.52-2.47a1.18 1.18 0 0 0-1.06.07l-4.22 2.57c-.3.18-.34.46-.06.6l4.52 2.47a1.18 1.18 0 0 0 1.06-.07l4.22-2.56c.3-.15.34-.43.06-.62z"/><path id="DC" d="M175.45 136.38l-4.52-2.47a1.2 1.2 0 0 0-1.07.07l-4.2 2.57c-.3.2-.34.46-.06.6l4.52 2.47a1.18 1.18 0 0 0 1.06-.06l4.22-2.57c.3-.2.33-.47.06-.62z"/><path id="DD" d="M181.56 139.73l-4.56-2.48a1.18 1.18 0 0 0-1.06.07l-4.2 2.57c-.32.2-.34.47-.07.62l4.52 2.47a1.2 1.2 0 0 0 1.07-.07l4.2-2.57c.35-.2.38-.46.1-.6z"/><path id="DE" d="M187.68 143.07l-4.52-2.47a1.18 1.18 0 0 0-1.06.07l-4.22 2.56c-.3.2-.34.47-.06.62l4.52 2.47a1.18 1.18 0 0 0 1.06-.07l4.22-2.57c.3-.2.38-.46.06-.6z"/><path id="DF" d="M193.8 146.4l-4.52-2.47a1.2 1.2 0 0 0-1.07.07l-4.2 2.57c-.3.2-.34.46-.06.6l4.52 2.47a1.18 1.18 0 0 0 1.06-.07l4.22-2.56c.3-.2.33-.47.06-.62z"/><path id="DG" d="M199.9 149.75l-4.52-2.47a1.18 1.18 0 0 0-1.06.07l-4.2 2.57c-.32.2-.34.46-.07.62l4.52 2.47a1.2 1.2 0 0 0 1.07-.07l4.2-2.57c.3-.2.34-.47.06-.62z"/><path id="DH" d="M206 153.1l-4.52-2.47a1.15 1.15 0 0 0-1.06.07l-4.22 2.56c-.3.2-.34.47-.06.62l4.52 2.47a1.18 1.18 0 0 0 1.06-.07l4.22-2.57c.34-.2.37-.46.06-.6z"/><path id="DI" d="M212.15 156.44l-4.52-2.44a1.2 1.2 0 0 0-1.07.07l-4.2 2.57c-.3.18-.34.46-.06.6l4.52 2.47a1.18 1.18 0 0 0 1.06-.07l4.22-2.56c.3-.22.33-.5.06-.65z"/><path id="DJ" d="M218.26 159.78l-4.52-2.47a1.18 1.18 0 0 0-1.06.07l-4.2 2.62c-.32.2-.34.46-.07.6l4.52 2.47A1.16 1.16 0 0 0 214 163l4.2-2.57c.3-.22.33-.5.05-.65z"/><path id="DK" d="M227.15 164.64l-7.3-4a1.18 1.18 0 0 0-1.06.07l-4.22 2.57c-.3.2-.34.47-.06.62l7.28 4a1.2 1.2 0 0 0 1.07-.07l4.2-2.57c.3-.2.34-.47.07-.62z"/><path id="DL" d="M143.36 125.68l-8.93-4.88a1.2 1.2 0 0 0-1.07.07l-4.2 2.57c-.3.2-.34.46-.06.6l8.93 4.9a1.2 1.2 0 0 0 1.07-.07l4.2-2.57c.3-.2.34-.47.06-.62z"/><path id="DM" d="M221.18 168.2l-8.94-4.88a1.18 1.18 0 0 0-1.06.07L207 166c-.3.2-.33.47-.06.62l8.94 4.88a1.18 1.18 0 0 0 1.06-.06l4.22-2.57c.27-.23.3-.5.02-.66z"/><path id="DN" d="M149.48 129l-4.48-2.44a1.15 1.15 0 0 0-1.06.07l-4.22 2.56c-.3.2-.34.47-.06.62l4.52 2.47a1.18 1.18 0 0 0 1.06-.07l4.22-2.57c.27-.2.3-.46.02-.64z"/><path id="DO" d="M155.6 132.37l-4.52-2.47a1.2 1.2 0 0 0-1.08.1l-4.2 2.57c-.3.18-.34.46-.06.6l4.52 2.47a1.18 1.18 0 0 0 1.06-.07l4.2-2.56c.33-.22.35-.5.08-.65z"/><path id="DP" d="M161.7 135.7l-4.52-2.47a1.18 1.18 0 0 0-1.06.07l-4.22 2.57c-.3.2-.33.46-.06.6l4.52 2.47a1.16 1.16 0 0 0 1.07-.06l4.2-2.57c.35-.2.35-.47.06-.62z"/><path id="DQ" d="M167.83 139.06l-4.52-2.48a1.18 1.18 0 0 0-1.06.07l-4.25 2.57c-.3.2-.34.47-.06.62l4.52 2.47a1.18 1.18 0 0 0 1.06-.07l4.22-2.57c.34-.2.37-.46.1-.6z"/><path id="DR" d="M174 142.4l-4.52-2.47a1.2 1.2 0 0 0-1.07.07l-4.2 2.56c-.3.2-.34.47-.06.62l4.52 2.47a1.18 1.18 0 0 0 1.06-.07l4.2-2.57c.27-.18.3-.46.07-.6z"/><path id="DS" d="M180.06 145.74l-4.52-2.47a1.18 1.18 0 0 0-1.06.07l-4.22 2.57c-.3.2-.33.46-.06.6l4.52 2.47a1.2 1.2 0 0 0 1.07-.07l4.2-2.56c.3-.2.34-.47.06-.62z"/><path id="DT" d="M186.18 149.08l-4.52-2.47a1.18 1.18 0 0 0-1.06.07l-4.22 2.57c-.3.2-.34.46-.06.62l4.52 2.47a1.18 1.18 0 0 0 1.06-.07l4.22-2.57c.3-.2.34-.47.06-.62z"/><path id="DU" d="M192.3 152.43l-4.52-2.43a1.2 1.2 0 0 0-1.07.07l-4.2 2.56c-.3.2-.34.47-.06.62l4.52 2.47a1.18 1.18 0 0 0 1.06-.07l4.22-2.57c.3-.23.33-.5.06-.65z"/><path id="DV" d="M198.4 155.77l-4.52-2.47a1.18 1.18 0 0 0-1.06.07l-4.22 2.57c-.3.18-.33.46-.06.6l4.52 2.47a1.2 1.2 0 0 0 1.07-.07l4.2-2.56c.3-.2.34-.47.06-.62z"/><path id="DW" d="M204.53 159.1l-4.53-2.47a1.18 1.18 0 0 0-1.06.07l-4.22 2.57c-.3.2-.34.46-.06.6l4.52 2.48a1.18 1.18 0 0 0 1.06-.07l4.22-2.57c.32-.2.35-.47.07-.62z"/><path id="DX" d="M210.65 162.46l-4.52-2.46a1.2 1.2 0 0 0-1.07.07l-4.2 2.57c-.3.2-.34.47-.06.62l4.52 2.47a1.18 1.18 0 0 0 1.06-.07l4.22-2.57c.3-.2.33-.48.06-.63z"/><path id="DY" d="M140.48 131l-12-6.55a1.18 1.18 0 0 0-1.06.07l-4.2 2.48c-.3.2-.34.46-.06.62l12 6.54a1.2 1.2 0 0 0 1.07-.07l4.2-2.57c.28-.15.3-.42.03-.52z"/><path id="DZ" d="M146.6 134.3l-4.52-2.47a1.18 1.18 0 0 0-1.06.07l-4.22 2.57c-.3.18-.34.46-.06.6l4.52 2.47a1.18 1.18 0 0 0 1.06-.07l4.22-2.56c.3-.2.34-.47.06-.62z"/><path id="Da" d="M152.72 137.63l-4.52-2.47a1.2 1.2 0 0 0-1.07.07l-4.2 2.57c-.3.2-.34.46-.06.6l4.52 2.47a1.18 1.18 0 0 0 1.06-.06l4.2-2.57c.35-.2.35-.47.07-.62z"/><path id="Db" d="M158.83 141l-4.52-2.48a1.18 1.18 0 0 0-1.06.07l-4.25 2.55c-.3.2-.33.47-.06.62l4.52 2.47a1.2 1.2 0 0 0 1.07-.07l4.2-2.57c.34-.2.37-.46.1-.6z"/><path id="Dc" d="M165 144.32l-4.52-2.47a1.18 1.18 0 0 0-1.06.07l-4.22 2.56c-.3.2-.34.47-.06.62l4.52 2.47a1.18 1.18 0 0 0 1.06-.07l4.22-2.57c.26-.2.3-.46.06-.6z"/><path id="Dd" d="M177.18 151l-4.52-2.47a1.18 1.18 0 0 0-1.06.07l-4.22 2.57c-.3.2-.33.46-.06.62l4.52 2.47a1.2 1.2 0 0 0 1.07-.07l4.2-2.57c.3-.2.34-.47.06-.62z"/><path id="De" d="M183.3 154.35l-4.52-2.47a1.15 1.15 0 0 0-1.06.07l-4.22 2.56c-.3.2-.34.47-.06.62l4.56 2.47a1.18 1.18 0 0 0 1.06-.07l4.22-2.57c.27-.2.3-.46.02-.6z"/><path id="Df" d="M189.42 157.7l-4.52-2.47a1.2 1.2 0 0 0-1.07.07l-4.2 2.57c-.3.18-.34.46-.06.6l4.52 2.47a1.18 1.18 0 0 0 1.06-.07l4.22-2.56c.3-.2.33-.47.06-.62z"/><path id="Dg" d="M195.53 161l-4.53-2.44a1.18 1.18 0 0 0-1.06.07l-4.22 2.57c-.3.2-.33.46-.06.6l4.52 2.48a1.2 1.2 0 0 0 1.07-.07l4.2-2.57c.32-.2.35-.47.07-.65z"/><path id="Dh" d="M201.65 164.38l-4.52-2.48a1.18 1.18 0 0 0-1.06.07l-4.22 2.57c-.3.2-.34.47-.06.62l4.52 2.47a1.18 1.18 0 0 0 1.06-.07l4.22-2.57c.3-.2.34-.46.06-.6z"/><path id="Di" d="M215.26 171.8l-12-6.56a1.2 1.2 0 0 0-1.07.07l-4.2 2.56c-.3.2-.34.47-.06.62l12 6.57A1.18 1.18 0 0 0 211 175l4.22-2.57c.3-.2.32-.43.04-.62z"/><path id="Dj" d="M183.5 161.3l-29-15.84a1.18 1.18 0 0 0-1.06.07l-4.22 2.57c-.3.2-.33.46-.06.6l29 15.85a1.18 1.18 0 0 0 1.06-.07l4.22-2.57c.3-.2.34-.47.06-.62z"/><path id="Dk" d="M145.47 140.5l-4.53-2.5a1.18 1.18 0 0 0-1.06.07l-4.2 2.57c-.3.2-.34.47-.07.62l4.53 2.47a1.18 1.18 0 0 0 1.06-.07l4.2-2.57c.3-.16.34-.43.07-.58z"/><path id="Dl" d="M152.92 144.58l-5.86-3.2a1.18 1.18 0 0 0-1.06.07l-4.22 2.55c-.3.2-.34.47-.06.62l5.86 3.2a1.18 1.18 0 0 0 1.06-.07l4.22-2.57c.3-.18.33-.45.06-.6z"/><path id="Dm" d="M192.55 166.24l4.52 2.47c.28.15.25.42-.06.6l-4.22 2.57a1.18 1.18 0 0 1-1.06.07l-4.52-2.47c-.28-.15-.25-.43.06-.62l4.22-2.56a1.18 1.18 0 0 1 1.06-.07z"/><path id="Dn" d="M185.1 162.17l5.85 3.2c.28.15.25.42-.06.6l-4.22 2.57a1.18 1.18 0 0 1-1.06.07l-5.85-3.2c-.28-.15-.25-.43.06-.62l4.2-2.57a1.16 1.16 0 0 1 1.07-.06z"/><path id="Do" d="M127.12 130.48L122.6 128a1.2 1.2 0 0 0-1.07.07l-4.2 2.56c-.3.2-.34.47-.07.62l4.53 2.47a1.18 1.18 0 0 0 1.06-.07l4.2-2.57c.3-.18.34-.45.07-.6z"/><path id="Dp" d="M133.23 133.82l-4.52-2.47a1.18 1.18 0 0 0-1.06.07l-4.22 2.58c-.3.2-.34.46-.06.6l4.52 2.47A1.18 1.18 0 0 0 129 137l4.22-2.56c.26-.2.3-.44.01-.62z"/><path id="Dq" d="M139.35 137.16l-4.52-2.47a1.18 1.18 0 0 0-1.06.07l-4.22 2.57c-.3.2-.34.46-.06.6l4.52 2.48a1.18 1.18 0 0 0 1.06-.07l4.22-2.57c.3-.2.34-.47.06-.62z"/><path id="Dr" d="M209.35 175.42l-10.68-5.84a1.2 1.2 0 0 0-1.07.07l-4.2 2.57c-.3.2-.34.46-.07.6l10.68 5.84a1.18 1.18 0 0 0 1.06-.07l4.2-2.57c.33-.2.35-.46.08-.6z"/><path id="Ds" d="M229.12 158.2l4.52 2.47a1.18 1.18 0 0 0 1.06-.07l2.1-1.27c.3-.2.33-.47.06-.62l-4.52-2.47a1.2 1.2 0 0 0-1.07.07l-2.1 1.28c-.3.18-.34.46-.06.6z"/><path id="Dt" d="M223 154.87l4.52 2.47a1.18 1.18 0 0 0 1.06-.07l2.1-1.28c.3-.2.34-.46.06-.6l-4.52-2.47a1.18 1.18 0 0 0-1.06.07l-2.1 1.27c-.3.2-.34.47-.06.62z"/><path id="Du" d="M216.88 151.53l4.52 2.47a1.2 1.2 0 0 0 1.07-.07l2.1-1.28c.3-.2.34-.46.06-.62l-4.52-2.47a1.18 1.18 0 0 0-1.06.07l-2.1 1.28c-.3.2-.33.46-.06.62z"/><path id="Dv" d="M210.77 148.18l4.52 2.47a1.18 1.18 0 0 0 1.06-.07l2.1-1.27c.3-.2.33-.47.06-.62l-4.5-2.47a1.2 1.2 0 0 0-1.07.07l-2.1 1.28c-.32.2-.35.43-.07.6z"/><path id="Dw" d="M204.65 144.84l4.52 2.47a1.18 1.18 0 0 0 1.06-.07l2.1-1.28c.3-.18.34-.46.06-.6l-4.52-2.47a1.18 1.18 0 0 0-1.06.07l-2.1 1.27c-.3.2-.34.47-.06.62z"/><path id="Dx" d="M198.53 141.5l4.52 2.47a1.2 1.2 0 0 0 1.07-.07l2.1-1.28c.3-.2.34-.46.06-.6l-4.52-2.47a1.18 1.18 0 0 0-1.06.06l-2.1 1.28c-.3.2-.33.47-.06.62z"/><path id="Dy" d="M192.42 138.15l4.52 2.47a1.18 1.18 0 0 0 1.06-.06l2.1-1.28c.3-.2.33-.47.06-.62l-4.52-2.47a1.2 1.2 0 0 0-1.07.07l-2.1 1.28c-.3.2-.34.46-.06.6z"/><path id="Dz" d="M186.3 134.8l4.52 2.47a1.18 1.18 0 0 0 1.06-.07l2.1-1.27c.3-.2.34-.47.06-.62l-4.52-2.47a1.18 1.18 0 0 0-1.06.07l-2.1 1.28c-.3.18-.36.46-.06.6z"/><path id="EA" d="M180.18 131.47l4.52 2.47a1.2 1.2 0 0 0 1.07-.07l2.1-1.28c.3-.2.34-.46.06-.6l-4.52-2.47a1.18 1.18 0 0 0-1.06.07l-2.1 1.27c-.3.15-.33.47-.06.62z"/><path id="EB" d="M174.07 128.13l4.52 2.47a1.18 1.18 0 0 0 1.06-.07l2.1-1.28c.3-.2.33-.46.06-.62l-4.52-2.47a1.2 1.2 0 0 0-1.07.07l-2.1 1.28c-.3.2-.34.5-.06.62z"/><path id="EC" d="M168 124.78l4.52 2.47a1.18 1.18 0 0 0 1.06-.07l2.1-1.27c.3-.2.34-.47.06-.62l-4.52-2.47a1.18 1.18 0 0 0-1.06.07l-2.1 1.28c-.36.2-.4.46-.06.6z"/><path id="ED" d="M161.83 121.44l4.52 2.47a1.2 1.2 0 0 0 1.07-.07l2.1-1.28c.3-.18.34-.46.06-.6l-4.52-2.47a1.18 1.18 0 0 0-1.06.07l-2.1 1.27c-.3.18-.33.47-.06.62z"/><path id="EE" d="M155.72 118.1l4.52 2.47a1.18 1.18 0 0 0 1.06-.07l2.1-1.28c.3-.2.33-.46.06-.6l-4.52-2.47a1.16 1.16 0 0 0-1.07.06l-2.1 1.28c-.3.2-.34.52-.06.62z"/><path id="EF" d="M146.84 113.24l7.28 4a1.17 1.17 0 0 0 1.06-.06l2.1-1.28c.3-.2.34-.47.06-.62l-7.28-4a1.2 1.2 0 0 0-1.07.07l-2.1 1.28c-.3.2-.34.46-.06.6z"/><path id="EG" d="M210.57 216.64c.5-.3.92-.06.92.53a2 2 0 0 1-.92 1.59c-.5.3-.92.06-.92-.52a2 2 0 0 1 .92-1.6z"/><linearGradient id="EH" gradientUnits="userSpaceOnUse"/></defs><g class="A"><g><g><g class="B" opacity=".75"><path d="M297.68 49.3l-12.93 7.37-23.6-13.63-10.2 5.8-8.45-4.87-8.03 4.58L210.3 34.6l-14.6-25.32L179.6 0v1.5l15.55 8.97 13.32 23.08-31.56-18.22v1.5l45.97 26.54-12.43 7.1-17.7-10.22-7.4 4.22-6.63-3.82-.01 1.5 7.17 4.14 7.4-4.23 17.7 10.22 13.72-7.8 10.3 5.9 8.04-4.58 26.74 15.44 10.74 18.6-18.3 10.43-7.66-13.28L230.5 63.1l-9.7 5.55-15.38-8.88v1.5l15.9 9.2 9.72-5.55L254 78.15l7.28 12.62-12.76 7.28L226.1 85.1l-12.55 7.16-37.24-21.5v1.5l37.8 21.8 12.55-7.14 22.42 12.94 4.77-2.73 11.4 19.72 14.45 8.35 11.58 20.05 23.1 13.33v-1.5l-22.56-13.03-11.57-20.04-14.46-8.35-11-19.07 26.67-15.2 8.63 14.96 22.8 13.16v-1.5L290.6 95.18l-20.3-35.15-17.54-10.12 8.9-5.08 23.6 13.63 12.93-7.37L313 59.63v-1.5l-15.32-8.85z" class="DQ"/></g><g class="D DQ"><path d="M267.77 31.87v1.23a.94.94 0 0 1-1.41.81l-5.8-3.34a.94.94 0 0 1-.48-.82v-1.23a1 1 0 0 1 1.42-.81l5.8 3.34a1 1 0 0 1 .47.82zm18.4 16.63v1.23a.94.94 0 0 1-1.41.81l-24.2-13.86a1 1 0 0 1-.47-.82v-1.23a.94.94 0 0 1 1.41-.82l24.2 13.87a1 1 0 0 1 .47.82z"/></g><g class="D DQ"><path d="M218.7 25.53v1.23a.94.94 0 0 1-1.41.82l-5.8-3.35a.92.92 0 0 1-.47-.81V22.2a.94.94 0 0 1 1.41-.82l5.8 3.35a.94.94 0 0 1 .47.81zm18.37 16.64v1.23a.93.93 0 0 1-1.4.82l-24.2-13.87a.94.94 0 0 1-.47-.81V28.3a.94.94 0 0 1 1.41-.81l24.2 13.87a.93.93 0 0 1 .47.81z"/></g><g class="E" opacity=".64" fill="#dcdcdc"><path d="M224.33 229.48c.23.15.2.38-.05.52a1 1 0 0 1-.87 0h0c-.24-.16-.2-.4.05-.52a1 1 0 0 1 .89 0zm-2.9 1.42c.2.16.18.4-.1.53a1 1 0 0 1-.83 0h-.06c-.2-.16-.16-.4.1-.52a1.07 1.07 0 0 1 .86 0zm-3.03 1.35c.2.17.13.4-.16.5a1 1 0 0 1-.81 0h-.08c-.2-.16-.13-.4.15-.5a1 1 0 0 1 .83 0zm-3.18 1.22c.18.18.1.4-.2.5h0a1 1 0 0 1-.77-.06l-.1-.06c-.18-.18-.1-.4.2-.5a1 1 0 0 1 .79.05zm-3.3 1.1c.17.18 0 .4-.27.5a1 1 0 0 1-.74-.06l-.12-.1c-.17-.2 0-.4.27-.5a1 1 0 0 1 .75.06zm-3.4 1c.14.18 0 .4-.32.48a1 1 0 0 1-.72-.07l-.12-.1c-.15-.2 0-.4.32-.5a1 1 0 0 1 .7.07.41.41 0 0 1 .14.12zm-3.52.87c.13.2 0 .4-.37.48a1 1 0 0 1-.69-.09l-.13-.13c-.14-.2 0-.4.35-.48a1 1 0 0 1 .69.09.64.64 0 0 1 .15.13zm37.56-22.58a.8.8 0 0 1-.8.22l-.25-.08a.29.29 0 0 1-.16-.38.81.81 0 0 1 .8-.24.72.72 0 0 1 .25.1c.17.1.24.24.16.38zM201.4 237.2c.12.2-.07.4-.4.47a1.06 1.06 0 0 1-.65-.09l-.16-.16c-.1-.18.1-.4.42-.46a.93.93 0 0 1 .63.1.45.45 0 0 1 .16.14zm42.25-25.48h0a.79.79 0 0 1-.79.25.62.62 0 0 1-.27-.09c-.16-.1-.23-.23-.18-.35a.75.75 0 0 1 .78-.27.89.89 0 0 1 .29.1c.16.1.22.23.17.36zm-45.9 26.08c.1.2-.1.4-.46.45h0a1 1 0 0 1-.6-.09l-.16-.17c-.08-.2.1-.4.47-.45a1 1 0 0 1 .6.1.41.41 0 0 1 .15.16zm46.58-28.58a.31.31 0 0 1 .19.33.73.73 0 0 1-.75.29.92.92 0 0 1-.33-.1.32.32 0 0 1-.19-.34.74.74 0 0 1 .75-.28.72.72 0 0 1 .33.1zM194 238.3c.05.2-.17.4-.5.43h0a.93.93 0 0 1-.59-.11.44.44 0 0 1-.18-.18c-.05-.2.17-.4.52-.44a1 1 0 0 1 .57.1.43.43 0 0 1 .19.2zm51-31.3c.14.08.2.2.18.3s-.36.35-.7.32a1 1 0 0 1-.36-.11.31.31 0 0 1-.19-.31c.06-.2.37-.34.73-.3a.85.85 0 0 1 .35.1zm-54.74 31.67c.05.2-.2.4-.54.4a.92.92 0 0 1-.54-.1.29.29 0 0 1-.16-.21c-.06-.2.2-.4.54-.4a.86.86 0 0 1 .52.1.3.3 0 0 1 .18.21zm55.1-33.83a.27.27 0 0 1 .17.29c0 .2-.32.36-.67.35a1.11 1.11 0 0 1-.4-.12.29.29 0 0 1-.18-.29c0-.2.33-.35.7-.33a.9.9 0 0 1 .39.1zm-59.07 33.83a.31.31 0 0 1 .18.23c0 .2-.24.38-.58.4a1 1 0 0 1-.5-.11.34.34 0 0 1-.19-.24c0-.2.25-.37.6-.4a1 1 0 0 1 .49.11zm59.24-36.04a.32.32 0 0 1 .19.28c0 .2-.28.36-.64.36a1 1 0 0 1-.44-.11.3.3 0 0 1-.18-.27c0-.2.3-.36.65-.36a.9.9 0 0 1 .42.1zm-63.07 36.1a.32.32 0 0 1 .19.26c0 .2-.28.37-.63.37a.88.88 0 0 1-.45-.1.37.37 0 0 1-.2-.27c0-.2.3-.36.64-.37a.86.86 0 0 1 .45.11zm63.03-38.3a.3.3 0 0 1 .18.24c0 .2-.27.37-.6.38a.8.8 0 0 1-.47-.11.34.34 0 0 1-.19-.24c0-.2.26-.37.6-.38a.94.94 0 0 1 .49.11zm-66.84 38.27a.33.33 0 0 1 .19.28c0 .2-.33.36-.67.35a1 1 0 0 1-.43-.11.32.32 0 0 1-.18-.28c0-.2.33-.36.67-.35a1 1 0 0 1 .42.11zm66.74-40.26c0 .2-.2.4-.55.4a1 1 0 0 1-.52-.11.33.33 0 0 1-.19-.23c0-.2.23-.38.57-.4a1 1 0 0 1 .52.1.34.34 0 0 1 .18.22zm-70.55 40.06a.35.35 0 0 1 .2.31c-.05.2-.37.34-.7.32a.9.9 0 0 1-.34-.13.31.31 0 0 1-.18-.3c0-.2.36-.35.7-.33a.85.85 0 0 1 .32.13zm70.05-42.27c.06.2-.17.4-.52.42a.93.93 0 0 1-.56-.11.41.41 0 0 1-.18-.19c0-.2.18-.4.53-.43a1 1 0 0 1 .55.11.35.35 0 0 1 .18.2zm-73.82 41.97c.14.08.2.2.17.32s-.38.34-.73.3a.8.8 0 0 1-.34-.1.31.31 0 0 1-.18-.33c.06-.2.4-.33.74-.3a.8.8 0 0 1 .34.1zm73.08-44.2c.08.2-.13.4-.48.43a1 1 0 0 1-.59-.09l-.17-.2c-.07-.2.15-.4.5-.44a1 1 0 0 1 .57.1.37.37 0 0 1 .18.19zm-76.82 43.74c.16.1.23.22.18.35a.79.79 0 0 1-.78.27l-.3-.1c-.15-.1-.23-.22-.2-.34a.76.76 0 0 1 .78-.28.81.81 0 0 1 .3.1zm75.86-45.87c.1.2-.08.4-.43.46a1.08 1.08 0 0 1-.63-.1l-.15-.16c-.12-.2.1-.4.42-.46a1.05 1.05 0 0 1 .63.1.31.31 0 0 1 .16.16zm-79.55 45.3c.16.1.23.23.16.37a.77.77 0 0 1-.78.25l-.28-.1c-.16-.1-.22-.24-.15-.37a.78.78 0 0 1 .79-.25.88.88 0 0 1 .26.09zM242 189.74c.1.2-.06.4-.38.47a1 1 0 0 1-.68-.09l-.14-.13c-.12-.2.05-.4.38-.47a1 1 0 0 1 .66.08.56.56 0 0 1 .16.14zm-82 46.72c.17.1.24.25.14.4a.8.8 0 0 1-.8.22l-.24-.1c-.17-.1-.24-.25-.15-.38a.81.81 0 0 1 .82-.22 1 1 0 0 1 .23.08zm80.6-48.8c.15.2 0 .4-.34.5a.94.94 0 0 1-.69-.09l-.14-.1c-.13-.2 0-.4.34-.5a1 1 0 0 1 .7.08.47.47 0 0 1 .13.11zm-84.1 48c.18.1.24.26.13.4a.89.89 0 0 1-.83.2l-.2-.08c-.2-.1-.24-.27-.14-.42a.88.88 0 0 1 .83-.18 1 1 0 0 1 .21.08zm82.5-50.02c.14.18 0 .4-.3.5a1 1 0 0 1-.72-.07l-.12-.1c-.16-.2 0-.4.27-.5a1.06 1.06 0 0 1 .75.08zm-85.94 49.08c.18.1.24.28.12.43a1 1 0 0 1-.87.16l-.15-.08c-.2-.1-.25-.28-.13-.42a.89.89 0 0 1 .87-.16zm84.1-51.05c.18.18.07.4-.24.5a1 1 0 0 1-.76-.05l-.1-.08c-.18-.18-.07-.4.24-.5a1 1 0 0 1 .76 0 .39.39 0 0 1 .1.13zm-87.46 49.97c.2.1.25.3.1.44a.92.92 0 0 1-.88.13l-.13-.05a.28.28 0 0 1-.1-.45 1 1 0 0 1 .88-.13.31.31 0 0 1 .13.06zm85.44-51.87c.2.17.1.4-.2.5a1 1 0 0 1-.8 0l-.08-.06c-.2-.17-.1-.4.18-.5a1.07 1.07 0 0 1 .81.05zm-88.67 50.68c.22.12.26.32.08.47a.91.91 0 0 1-.87.1l-.1-.05c-.2-.12-.25-.3-.1-.46a1 1 0 0 1 .9-.1zm86.43-52.53c.2.17.17.4-.12.52a1 1 0 0 1-.83 0h-.06c-.22-.16-.16-.4.12-.5a1 1 0 0 1 .84 0zm-89.52 51.24c.22.13.25.33.06.48a1 1 0 0 1-.9.08h0-.08c-.22-.13-.24-.33-.05-.48a1 1 0 0 1 .89-.07zm87.12-52.97c.22.16.2.38-.07.52a1 1 0 0 1-.86 0h0c-.23-.15-.2-.38.07-.52a1 1 0 0 1 .85 0zm-90.1 51.57c.24.14.27.36 0 .5a1 1 0 0 1-.91 0h0c-.24-.13-.26-.35 0-.5a1 1 0 0 1 .89 0zm87.53-53.24a.29.29 0 0 1 0 .53 1 1 0 0 1-.9 0h0c-.24-.16-.23-.4 0-.52a1 1 0 0 1 .89 0zm-90.33 51.74c.25.14.26.38 0 .52a1 1 0 0 1-.9 0h0c-.25-.14-.25-.37 0-.52a1 1 0 0 1 .9 0zm87.58-53.3c.26.14.27.37 0 .52a1 1 0 0 1-.9 0h0a.28.28 0 0 1 0-.52 1 1 0 0 1 .9 0zM135 226.67c.24.14.24.38 0 .52a1 1 0 0 1-.89 0h0c-.24-.15-.22-.4 0-.52a.94.94 0 0 1 .85 0zm87.34-53.17a.26.26 0 0 1 0 .49 1 1 0 0 1-.89.05h0c-.24-.14-.27-.35-.05-.5a1 1 0 0 1 .89 0zM132.5 225c.2.16.2.4-.1.52a1 1 0 0 1-.85 0h-.05c-.2-.15-.17-.4.1-.5a1 1 0 0 1 .84 0zm86.82-52.87c.2.13.25.32 0 .48a.92.92 0 0 1-.86.07h-.08c-.22-.13-.25-.33-.07-.48a1 1 0 0 1 .89-.08zm-89.12 51.13c.22.16.14.4-.15.5a1 1 0 0 1-.81 0h-.08c-.2-.17-.12-.4.15-.52a1.05 1.05 0 0 1 .82 0 .18.18 0 0 1 .07.01zm85.97-52.38c.2.12.24.3.08.45a1 1 0 0 1-.89.12l-.1-.06c-.2-.12-.25-.3-.08-.45a1 1 0 0 1 .88-.11zm-88.07 50.56c.18.17.1.4-.2.5a1 1 0 0 1-.78-.06l-.1-.06c-.2-.18-.1-.4.2-.5a1 1 0 0 1 .77 0 .39.39 0 0 1 .1.12zm84.8-51.7c.2.12.24.3.1.44a.93.93 0 0 1-.86.15l-.14-.07c-.2-.1-.25-.3-.12-.44a1 1 0 0 1 .88-.14zm-86.7 49.82c.16.17 0 .4-.26.5a1 1 0 0 1-.75 0l-.1-.1c-.17-.17 0-.4.25-.5a1 1 0 0 1 .76.06zm83.3-50.85c.2.1.24.27.12.42a.86.86 0 0 1-.85.17l-.17-.07c-.2-.1-.25-.27-.12-.42a.88.88 0 0 1 .84-.17h0a.44.44 0 0 1 .18.07zm-85.02 48.9c.14.2 0 .4-.3.5a1 1 0 0 1-.72-.08l-.13-.1c-.14-.17 0-.4.3-.48a1 1 0 0 1 .72.07.45.45 0 0 1 .13.1zM206 167.8c.17.1.24.27.14.4a.85.85 0 0 1-.83.2l-.2-.08c-.18-.1-.26-.26-.15-.4a.84.84 0 0 1 .83-.2.65.65 0 0 1 .21.07zm-83 47.78c.12.18 0 .4-.37.48a1.08 1.08 0 0 1-.68-.08l-.14-.13c-.14-.2 0-.4.35-.48a1 1 0 0 1 .69.09.44.44 0 0 1 .15.12zM202.44 167a.27.27 0 0 1 .15.38c-.1.2-.46.3-.8.23l-.25-.1a.28.28 0 0 1-.15-.38.82.82 0 0 1 .81-.23.85.85 0 0 1 .24.09zm-80.77 46.52c.1.2-.07.4-.4.47a1 1 0 0 1-.65-.1l-.16-.14c-.1-.2.08-.4.4-.47a1.09 1.09 0 0 1 .66.09.46.46 0 0 1 .16.15zm77.13-47.14c.16.1.23.22.16.36a.77.77 0 0 1-.77.25l-.28-.1c-.16-.1-.24-.23-.17-.37a.8.8 0 0 1 .77-.25.7.7 0 0 1 .29.1zm-78.2 45.04c.08.2-.12.4-.46.45a1.05 1.05 0 0 1-.63-.1l-.16-.17c-.1-.2.1-.4.46-.45a1 1 0 0 1 .62.11.44.44 0 0 1 .17.16zm74.5-45.58c.15.1.22.2.18.34s-.4.33-.74.3a.8.8 0 0 1-.33-.11.31.31 0 0 1-.2-.36c.07-.2.4-.32.76-.3a.87.87 0 0 1 .33.13z"/><path d="M119.74 209.3c.06.2-.16.4-.5.43a1 1 0 0 1-.57-.11l-.2-.2c-.06-.2.16-.4.5-.42a.93.93 0 0 1 .57.09.38.38 0 0 1 .18.2zm71.6-43.85a.31.31 0 0 1 .19.32c-.06.2-.38.34-.74.3a.8.8 0 0 1-.34-.1c-.15-.08-.22-.2-.18-.32s.37-.33.72-.3a.72.72 0 0 1 .35.1zm-72.24 41.67c0 .2-.2.4-.53.42a1 1 0 0 1-.55-.11.32.32 0 0 1-.18-.2c-.06-.2.2-.4.54-.42a.87.87 0 0 1 .53.1.38.38 0 0 1 .19.21zm68.45-41.94a.31.31 0 0 1 .18.3c0 .2-.32.35-.68.33a.9.9 0 0 1-.4-.1.3.3 0 0 1-.18-.3c0-.2.34-.35.7-.33a1.06 1.06 0 0 1 .39.1zM118.5 204.7a.34.34 0 0 1 .19.24c0 .2-.22.37-.58.4a.92.92 0 0 1-.51-.11.3.3 0 0 1-.17-.23c0-.2.23-.38.57-.4a.93.93 0 0 1 .5.11zm65.25-39.65a.33.33 0 0 1 .19.27c0 .2-.3.37-.66.36a.91.91 0 0 1-.43-.11c-.13-.07-.2-.17-.18-.27s.3-.36.64-.36a.87.87 0 0 1 .44.11zM118.3 202.5a.3.3 0 0 1 .18.25c0 .2-.26.37-.6.38a1 1 0 0 1-.46-.11.33.33 0 0 1-.2-.26c0-.2.28-.37.63-.37a.92.92 0 0 1 .46.11zm61.62-37.45a.33.33 0 0 1 .19.25c0 .2-.26.36-.62.37a.83.83 0 0 1-.46-.11.33.33 0 0 1-.19-.25c0-.2.26-.37.62-.37a1 1 0 0 1 .46.11zm-61.57 35.25a.33.33 0 0 1 .19.27c0 .2-.32.36-.67.35a.9.9 0 0 1-.42-.11.33.33 0 0 1-.19-.26h0c0-.2.32-.36.68-.35a.79.79 0 0 1 .41.1zm57.78-35.12a.33.33 0 0 1 .18.21c0 .2-.24.4-.58.4a.9.9 0 0 1-.51-.11.38.38 0 0 1-.19-.23c0-.2.23-.38.58-.4a.93.93 0 0 1 .52.11zM118.6 198.1a.3.3 0 0 1 .19.29c0 .2-.35.36-.7.34a.9.9 0 0 1-.39-.11c-.13-.08-.2-.18-.18-.3s.34-.35.7-.33a.85.85 0 0 1 .38.11zm53.9-32.47c0 .2-.2.4-.53.43a1 1 0 0 1-.56-.11.33.33 0 0 1-.17-.2c-.05-.2.18-.4.52-.42a1 1 0 0 1 .56.1.42.42 0 0 1 .18.2zm-53.4 30.27c.14.08.2.2.17.32s-.38.33-.73.3a1.11 1.11 0 0 1-.35-.11c-.13-.08-.2-.2-.17-.32s.4-.34.72-.3a1.09 1.09 0 0 1 .36.11zm49.65-29.9c.06.2-.15.4-.5.43a.91.91 0 0 1-.59-.1l-.18-.18c-.06-.2.15-.4.5-.44a.89.89 0 0 1 .57.1.43.43 0 0 1 .19.19zm-48.93 27.73a.28.28 0 0 1 .17.35c-.07.2-.4.32-.76.27l-.3-.1a.31.31 0 0 1-.18-.35.75.75 0 0 1 .77-.28.87.87 0 0 1 .31.1zM165 166.5c.1.18-.1.4-.44.45a1 1 0 0 1-.61-.1l-.17-.17c-.1-.18.1-.38.44-.45a1 1 0 0 1 .62.1.37.37 0 0 1 .16.17zm-44.24 25.1c.16.1.23.23.17.36a.79.79 0 0 1-.79.26l-.27-.1c-.16-.1-.23-.23-.18-.35a.77.77 0 0 1 .79-.26 1 1 0 0 1 .28.09zm40.6-24.47c.12.2-.06.4-.4.47a1 1 0 0 1-.66-.09l-.15-.14c-.12-.2.07-.4.4-.47a1 1 0 0 1 .66.09.56.56 0 0 1 .16.14zm-39.45 22.37c.17.1.24.25.15.38a.81.81 0 0 1-.82.22l-.25-.1c-.17-.1-.24-.24-.15-.38a.85.85 0 0 1 .81-.23 1.1 1.1 0 0 1 .26.1zm35.88-21.6c.12.2 0 .4-.37.48a.92.92 0 0 1-.68-.09l-.14-.12c-.13-.18 0-.4.34-.48a1 1 0 0 1 .7.08.64.64 0 0 1 .15.13zm-34.5 19.54c.18.1.25.26.14.4a.88.88 0 0 1-.83.2l-.2-.08c-.2-.1-.25-.27-.15-.4a.87.87 0 0 1 .84-.2.72.72 0 0 1 .2.09zm1.58-2c.2.1.25.28.12.43a.9.9 0 0 1-.85.16L124 186c-.2-.1-.25-.27-.12-.42a.83.83 0 0 1 .84-.17.51.51 0 0 1 .16.02zm1.9-1.5a.92.92 0 0 1-.86.13l-.14-.06c-.2-.1-.26-.3-.1-.45h0a.92.92 0 0 1 .87-.14l.12.06c.2.13.27.3.12.46zm1.98-1.87a1 1 0 0 1-.88.11h-.1c-.2-.12-.25-.3-.1-.47a1 1 0 0 1 .89-.09h.1c.2.1.25.3.08.45zm2.16-1.78a.94.94 0 0 1-.88.07h-.08c-.22-.13-.25-.34-.06-.5a1 1 0 0 1 .89-.07h.08a.27.27 0 0 1 .05.49zm1.45-1.68h0c-.24-.14-.26-.36 0-.5a1 1 0 0 1 .9 0h0c.24.14.27.36.05.5a1 1 0 0 1-.95-.01zm2.5-1.6h0c-.25-.14-.26-.38 0-.52a.94.94 0 0 1 .89 0h0a.27.27 0 0 1 0 .5 1 1 0 0 1-.89.02zm2.7-1.62a.27.27 0 0 1 0-.51 1 1 0 0 1 .88 0h0c.24.14.23.38 0 .5a1 1 0 0 1-.88 0zm2.82-1.48c-.23-.16-.2-.4.08-.5a1 1 0 0 1 .86 0h0c.23.15.18.38-.08.52h0a1 1 0 0 1-.84 0zm3-1.36c-.22-.17-.16-.4.13-.5a1 1 0 0 1 .81 0 .18.18 0 0 1 .07.05c.22.16.15.4-.12.5a1 1 0 0 1-.84 0zm3.1-1.27c-.18-.17-.1-.4.2-.5a1 1 0 0 1 .81.06h.08c.2.17.1.4-.2.5a1 1 0 0 1-.8-.06zm3.26-1.15c-.17-.17-.06-.4.24-.5a1.06 1.06 0 0 1 .77.06.39.39 0 0 1 .1.08c.17.18.07.4-.24.5a1 1 0 0 1-.75-.06zm3.37-1.02c-.16-.2 0-.4.3-.5a1 1 0 0 1 .74.07.4.4 0 0 1 .12.1c.14.2 0 .4-.3.5a1 1 0 0 1-.73-.07zm87.07 46.98c-.18-.1-.23-.26-.13-.4a.8.8 0 0 1 .82-.2.66.66 0 0 1 .21.08c.17.1.24.25.15.4a.86.86 0 0 1-.83.2zm-1.5 2.02c-.18-.1-.25-.28-.12-.4a.85.85 0 0 1 .84-.18.75.75 0 0 1 .18.07c.18.1.25.27.13.42a.9.9 0 0 1-.84.18zm-1.8 1.53a.92.92 0 0 1 .86-.14l.14.06c.2.1.26.3.12.44a1 1 0 0 1-.87.15l-.14-.07c-.2-.07-.25-.28-.1-.44zm-1.9 1.9a.94.94 0 0 1 .87-.11l.13.06a.27.27 0 0 1 .09.45 1 1 0 0 1-.88.11l-.1-.05c-.2-.12-.26-.3-.1-.46zm-2.1 1.83a1 1 0 0 1 .89-.09h.07c.22.13.26.33.08.48a1 1 0 0 1-.89.09l-.07-.05c-.22-.1-.26-.3-.08-.43zm-1.4 1.65h0c.23.13.26.35.06.5a1 1 0 0 1-.9 0h-.06a.27.27 0 0 1 0-.49 1 1 0 0 1 .9-.01zm-2.44 1.72h0a.27.27 0 0 1 0 .51 1.07 1.07 0 0 1-.91 0h0a.28.28 0 0 1 0-.52h0a1 1 0 0 1 .91.01zm-2 1.28c.24.14.24.36 0 .5h0a1 1 0 0 1-.89 0c-.26-.15-.25-.38 0-.52a1 1 0 0 1 .89.01z"/></g><ellipse cx="171.01" cy="153.97" rx="171.01" ry="115.14" fill="url(#A)"/><path d="M247.07 153.86l-1.58-67.4c-.1-3.8-1.37-5.6-3.87-7L151.28 30.1a2.83 2.83 0 0 0-2.4-.4h0l1.62-1a2.84 2.84 0 0 1 2.37.41l90.34 49.37c2.5 1.4 3.78 3.2 3.87 7l1.58 67.4c0 1.8-.43 2.84-1.2 3.22l-1.33.78c.62-.44 1-1.43.95-3.02z" fill="url(#B)"/><path d="M244.94 162.65a2 2 0 0 0 0-.34l-.08-3.4a3.45 3.45 0 0 1-1.88 2.45l-57.6 35.07c-2.33 1.42-5.9 1.65-8 .52l-90.32-49.37a2.44 2.44 0 0 1-1.42-1.85h0l.08 3.66a2.38 2.38 0 0 0 1.43 2l90.34 49.37c2.07 1.14 5.64.9 8-.5l57.6-35.07a3.46 3.46 0 0 0 1.88-2.45h0z" fill="url(#C)"/><path d="M208.58 182h0L111 128.65 87.53 143a5.56 5.56 0 0 0-.75.54h0c-1.6 1.37-1.53 3.08.3 4.08L177.4 197c2.07 1.13 5.64.9 8-.52l23.5-14.3z" fill="url(#D)"/><path d="M208.88 182.12L243 161.36c2.33-1.42 2.54-3.5.46-4.62l-90.34-49.37c-2.07-1.14-5.64-.9-8 .52L111 128.65z" fill="url(#E)"/><g class="DT"><use xlink:href="#Ce"/><use xlink:href="#Cf"/></g><path d="M153.1 107.37l90.34 49.37c2.08 1.13 3.72.42 3.64-2.88l-1.58-67.4c-.1-3.8-1.37-5.6-3.87-7L151.28 30.1c-2.07-1.14-3.72-.57-3.64 2.88l1.58 67.4c.1 4.4 1.6 5.76 3.87 7z" fill="url(#F)"/><use xlink:href="#Cg" fill="url(#G)"/><path d="M243 147.62l-1.48-63.43a.62.62 0 0 0-.32-.52l-88.66-48.45a.61.61 0 0 0-.91.55l1.48 63.43a.62.62 0 0 0 .32.52l88.66 48.46a.62.62 0 0 0 .91-.56z" fill="url(#H)"/><path class="Q DQ" d="M220.92 72.6l-68.34-37.4a.61.61 0 0 0-.91.55l1.48 63.43a.62.62 0 0 0 .32.52l12.1 6.62z" opacity=".2"/><g fill="#5c5c5c" class="DR"><use xlink:href="#Ch" class="DR"/><use xlink:href="#Ci" class="DR"/></g><g fill="#9faed4"><path class="U" d="M172.46 165.9l-30.2-16.5a2.93 2.93 0 0 0-2.67.06l-11.57 7-.6-.32 12.15-7.4a2.93 2.93 0 0 1 2.66-.06l30.22 16.5c.52.3.68.72.48 1.1a1.11 1.11 0 0 0-.47-.39zm-28.8.4l-7.32 4.45-.58-.32 7.88-4.8 16.2 8.85-.57.35-15.6-8.53zm-16.73-9.15l-6.57 4a1.23 1.23 0 0 0-.44.44c-.22-.37-.08-.8.43-1.1l6.57-4 16.2 8.86-.57.34z" opacity=".6"/></g><g class="DT"><use xlink:href="#Cj"/><use xlink:href="#Ck"/><use xlink:href="#Cl"/><use xlink:href="#Cm"/><use xlink:href="#Cn"/><use xlink:href="#Co"/><use xlink:href="#Cp"/><use xlink:href="#Cq"/><use xlink:href="#Cr"/><use xlink:href="#Cs"/><use xlink:href="#Ct"/><use xlink:href="#Cu"/><use xlink:href="#Cv"/><use xlink:href="#Cw"/><use xlink:href="#Cx"/><use xlink:href="#Cy"/><use xlink:href="#Cz"/><use xlink:href="#DA"/><use xlink:href="#DB"/><use xlink:href="#DC"/><use xlink:href="#DD"/><use xlink:href="#DE"/><use xlink:href="#DF"/><use xlink:href="#DG"/><use xlink:href="#DH"/><use xlink:href="#DI"/><use xlink:href="#DJ"/><use xlink:href="#DK"/><use xlink:href="#DL"/><use xlink:href="#DM"/><use xlink:href="#DN"/><use xlink:href="#DO"/><use xlink:href="#DP"/><use xlink:href="#DQ"/><use xlink:href="#DR"/><use xlink:href="#DS"/><use xlink:href="#DT"/><use xlink:href="#DU"/><use xlink:href="#DV"/><use xlink:href="#DW"/><use xlink:href="#DX"/><use xlink:href="#DY"/><use xlink:href="#DZ"/><use xlink:href="#Da"/><use xlink:href="#Db"/><use xlink:href="#Dc"/><use xlink:href="#DF" x="-22.73" y="1.26"/><use xlink:href="#Dd"/><use xlink:href="#De"/><use xlink:href="#Df"/><use xlink:href="#Dg"/><use xlink:href="#Dh"/><use xlink:href="#Di"/><use xlink:href="#Dj"/><use xlink:href="#Dk"/><use xlink:href="#Dl"/><use xlink:href="#Dm"/><use xlink:href="#Dn"/><use xlink:href="#Do"/><use xlink:href="#Dp"/><use xlink:href="#Dq"/><use xlink:href="#Dr"/><use xlink:href="#Ds"/><use xlink:href="#Dt"/><use xlink:href="#Du"/><use xlink:href="#Dv"/><use xlink:href="#Dw"/><use xlink:href="#Dx"/><use xlink:href="#Dy"/><use xlink:href="#Dz"/><use xlink:href="#EA"/><use xlink:href="#EB"/><use xlink:href="#EC"/><use xlink:href="#ED"/><use xlink:href="#EE"/><use xlink:href="#EF"/></g><path d="M247.07 153.86l-1.58-67.4c-.1-3.8-1.37-5.6-3.87-7L151.28 30.1a2.83 2.83 0 0 0-2.4-.4h0l1.62-1a2.84 2.84 0 0 1 2.37.41l90.34 49.37c2.5 1.4 3.78 3.2 3.87 7l1.58 67.4c0 1.8-.43 2.84-1.2 3.22l-1.33.78c.62-.44 1-1.43.95-3.02z" fill="url(#B)"/><path d="M245.8 157.1h0z" fill="#a6a8ab"/><path d="M244.94 162.65a2 2 0 0 0 0-.34l-.08-3.4a3.45 3.45 0 0 1-1.88 2.45l-57.6 35.07c-2.33 1.42-5.9 1.65-8 .52l-90.32-49.37a2.44 2.44 0 0 1-1.42-1.85h0l.08 3.66a2.38 2.38 0 0 0 1.43 2l90.34 49.37c2.07 1.14 5.64.9 8-.5l57.6-35.07a3.46 3.46 0 0 0 1.88-2.45h0z" fill="url(#C)"/><path d="M208.58 182h0L111 128.65 87.53 143a5.56 5.56 0 0 0-.75.54h0c-1.6 1.37-1.53 3.08.3 4.08L177.4 197c2.07 1.13 5.64.9 8-.52l23.5-14.3z" fill="url(#D)"/><path d="M208.88 182.12L243 161.36c2.33-1.42 2.54-3.5.46-4.62l-90.34-49.37c-2.07-1.14-5.64-.9-8 .52L111 128.65z" fill="url(#E)"/><g class="DT"><use xlink:href="#Ce"/><use xlink:href="#Cf"/></g><path d="M153.1 107.37l90.34 49.37c2.08 1.13 3.72.42 3.64-2.88l-1.58-67.4c-.1-3.8-1.37-5.6-3.87-7L151.28 30.1c-2.07-1.14-3.72-.57-3.64 2.88l1.58 67.4c.1 4.4 1.6 5.76 3.87 7z" fill="url(#F)"/><use xlink:href="#Cg" fill="url(#I)"/><path d="M243 147.62l-1.48-63.43a.62.62 0 0 0-.32-.52l-88.66-48.45a.61.61 0 0 0-.91.55l1.48 63.43a.62.62 0 0 0 .32.52l88.66 48.46a.62.62 0 0 0 .91-.56z" fill="url(#H)"/><path class="Q DQ" d="M220.92 72.6l-68.34-37.4a.61.61 0 0 0-.91.55l1.48 63.43a.62.62 0 0 0 .32.52l12.1 6.62z" opacity=".2"/><path d="M127.42 156.17l12.15-7.4a2.93 2.93 0 0 1 2.66-.06l30.22 16.5c.75.4.77 1.1 0 1.54l-12.14 7.4z" fill="#6c7195" class="DR"/><g fill="#5c5c5c" class="DR"><use xlink:href="#Ch" class="DR"/><use xlink:href="#Ci" class="DR"/></g><g fill="#9faed4"><path class="U" d="M172.46 165.9l-30.2-16.5a2.93 2.93 0 0 0-2.67.06l-11.57 7-.6-.32 12.15-7.4a2.93 2.93 0 0 1 2.66-.06l30.22 16.5c.52.3.68.72.48 1.1a1.11 1.11 0 0 0-.47-.39zm-28.8.4l-7.32 4.45-.58-.32 7.88-4.8 16.2 8.85-.57.35-15.6-8.53zm-16.73-9.15l-6.57 4a1.23 1.23 0 0 0-.44.44c-.22-.37-.08-.8.43-1.1l6.57-4 16.2 8.86-.57.34z" opacity=".6"/></g><g class="DT"><use xlink:href="#Cj"/><use xlink:href="#Ck"/><use xlink:href="#Cl"/><use xlink:href="#Cm"/><use xlink:href="#Cn"/><use xlink:href="#Co"/><use xlink:href="#Cp"/><use xlink:href="#Cq"/><use xlink:href="#Cr"/><use xlink:href="#Cs"/><use xlink:href="#Ct"/><use xlink:href="#Cu"/><use xlink:href="#Cv"/><use xlink:href="#Cw"/><use xlink:href="#Cx"/><use xlink:href="#Cy"/><use xlink:href="#Cz"/><use xlink:href="#DA"/><use xlink:href="#DB"/><use xlink:href="#DC"/><use xlink:href="#DD"/><use xlink:href="#DE"/><use xlink:href="#DF"/><use xlink:href="#DG"/><use xlink:href="#DH"/><use xlink:href="#DI"/><use xlink:href="#DJ"/><use xlink:href="#DK"/><use xlink:href="#DL"/><use xlink:href="#DM"/><use xlink:href="#DN"/><use xlink:href="#DO"/><use xlink:href="#DP"/><use xlink:href="#DQ"/><use xlink:href="#DR"/><use xlink:href="#DS"/><use xlink:href="#DT"/><use xlink:href="#DU"/><use xlink:href="#DV"/><use xlink:href="#DW"/><use xlink:href="#DX"/><use xlink:href="#DY"/><use xlink:href="#DZ"/><use xlink:href="#Da"/><use xlink:href="#Db"/><use xlink:href="#Dc"/><use xlink:href="#DF" x="-22.73" y="1.26"/><use xlink:href="#Dd"/><use xlink:href="#De"/><use xlink:href="#Df"/><use xlink:href="#Dg"/><use xlink:href="#Dh"/><use xlink:href="#Di"/><use xlink:href="#Dj"/><use xlink:href="#Dk"/><use xlink:href="#Dl"/><use xlink:href="#Dm"/><use xlink:href="#Dn"/><use xlink:href="#Do"/><use xlink:href="#Dp"/><use xlink:href="#Dq"/><use xlink:href="#Dr"/><use xlink:href="#Ds"/><use xlink:href="#Dt"/><use xlink:href="#Du"/><use xlink:href="#Dv"/><use xlink:href="#Dw"/><use xlink:href="#Dx"/><use xlink:href="#Dy"/><use xlink:href="#Dz"/><use xlink:href="#EA"/><use xlink:href="#EB"/><use xlink:href="#EC"/><use xlink:href="#ED"/><use xlink:href="#EE"/><use xlink:href="#EF"/></g><g class="A"><path d="M113.22 110.02l-7.64-4.44-.14-50.93 7.63 4.44.15 50.93z" fill="#005478"/><path d="M113.07 59.1l-7.63-4.44 6.65-3.84 7.64 4.43-6.66 3.85z" fill="#00c5f9"/><path d="M119.73 55.24l.15 50.94-6.66 3.84-.15-50.93 6.66-3.85z" fill="#009ee0"/><path d="M100.6 117.3l-7.64-4.44-.12-41.22 7.64 4.44.12 41.22z" fill="#4a3888"/><path d="M100.48 76.1l-7.64-4.44 6.66-3.84 7.64 4.44-6.66 3.84z" fill="#b390ff"/><path d="M107.14 72.25l.12 41.2-6.66 3.85-.12-41.22 6.66-3.84z" fill="#8b68ff"/><path d="M87.98 124.6l-7.64-4.43-.05-17.37 7.64 4.43.05 17.37z" fill="#886621"/><path d="M87.93 107.22l-7.64-4.43 6.66-3.85 7.64 4.44-6.66 3.84z" fill="#ffd43d"/><path d="M94.6 103.38l.05 17.37-6.66 3.84-.05-17.37 6.66-3.84z" class="DY"/><path d="M75.36 131.88l-7.64-4.44-.1-31.8 7.64 4.44.1 31.8z" fill="#883911"/><path d="M75.27 100.08l-7.64-4.44 6.67-3.84 7.63 4.44-6.66 3.84z" fill="#ff8b1f"/><path d="M81.93 96.24l.1 31.8-6.66 3.85-.1-31.8 6.66-3.84z" fill="#ff6b1f"/><path d="M62.74 139.16l-7.64-4.44-.02-7.36 7.64 4.44.02 7.36z" fill="#882e38"/><path d="M62.72 131.8l-7.64-4.44 6.67-3.84 7.63 4.44-6.66 3.84z" fill="#ff6a95"/><path d="M69.38 127.96l.02 7.36-6.66 3.84-.02-7.36 6.66-3.84z" fill="#ff5668"/></g><path class="l" d="M127.44 44v59.2a2.11 2.11 0 0 0 1.1 1.85l80.93 44.23a2.11 2.11 0 0 0 3.12-1.85V88.27a2.11 2.11 0 0 0-1.1-1.85L130.56 42.2a2.11 2.11 0 0 0-3.12 1.81z" opacity=".5" fill="url(#J)"/><g class="m"><path d="M172.9 118.62a.51.51 0 0 1 .22.42c0 .14-.12.2-.24.12h0a.54.54 0 0 1-.22-.43c0-.14.1-.2.24-.12z" fill="url(#K)"/><path d="M172.74 120.18a.58.58 0 0 1 .21.44c0 .13-.13.16-.25.1h0a.53.53 0 0 1-.19-.44c0-.12.12-.16.23-.1z" fill="url(#L)"/><path d="M172.48 121.68a.5.5 0 0 1 .17.43c0 .12-.12.14-.23.07h-.06a.51.51 0 0 1-.18-.44h0a.14.14 0 0 1 .23-.08z" fill="url(#M)"/><path d="M172.1,123.07a.49.49,0,0,1,.15.44c0,.1-.13.12-.23.06l-.08-.06a.47.47,0,0,1-.15-.44c0-.1.13-.12.23-.06Z" fill="url(#N)"/><path d="M171 125.54a.42.42 0 0 1 .11.43.15.15 0 0 1-.22 0l-.1-.1a.44.44 0 0 1-.11-.44.15.15 0 0 1 .22 0 .35.35 0 0 1 .11.1z" fill="url(#O)"/><path d="M170.3 126.6c.1.15.15.34.08.43a.16.16 0 0 1-.21 0l-.12-.1c-.12-.15-.16-.34-.08-.43s.12-.06.2 0a.33.33 0 0 1 .13.11z" fill="url(#P)"/><path d="M167.46 128.84a.5.5 0 0 1 .17.18c.1.16.1.34 0 .4a.17.17 0 0 1-.18 0 .43.43 0 0 1-.17-.18c-.1-.17-.1-.34 0-.4s.1-.04.18 0z" fill="url(#Q)"/><path d="M164 129.94a.53.53 0 0 1 .21.25c.07.17 0 .32-.08.33H164a.51.51 0 0 1-.2-.25c-.07-.17 0-.32.07-.34a.22.22 0 0 1 .13.01z" fill="url(#R)"/><path d="M162.75 130a.58.58 0 0 1 .22.28c.05.17 0 .3-.1.3h-.1a.47.47 0 0 1-.21-.28c-.06-.17 0-.3.1-.3z" fill="url(#S)"/><path d="M161.43 129.94a.49.49 0 0 1 .22.3c0 .18 0 .3-.13.3h-.1a.58.58 0 0 1-.23-.31c0-.17 0-.3.14-.28a.16.16 0 0 1 .09 0z" fill="url(#T)"/><path d="M160.06 129.72a.5.5 0 0 1 .23.33c.05.17 0 .28-.16.26h-.07a.57.57 0 0 1-.23-.33c0-.17 0-.3.16-.26a.11.11 0 0 1 .07 0z" fill="url(#U)"/><path d="M159.38 88.66a.53.53 0 0 1 .17.45.14.14 0 0 1-.23.07l-.07-.05a.48.48 0 0 1-.17-.44c0-.1.13-.13.24-.07z" fill="url(#V)"/><path d="M158.66 129.36a.54.54 0 0 1 .24.34c0 .17-.05.28-.18.24h-.06a.51.51 0 0 1-.23-.35c0-.17 0-.27.18-.23z" fill="url(#W)"/><path d="M157.23 128.84a.55.55 0 0 1 .24.38c0 .17-.07.25-.2.2h0a.51.51 0 0 1-.26-.41c0-.16.07-.25.2-.2z" fill="url(#X)"/><path d="M155.8 128.2a.55.55 0 0 1 .23.39c0 .16-.1.23-.22.17h0a.53.53 0 0 1-.24-.4c0-.16.1-.23.23-.16z" fill="url(#Y)"/><path d="M152.9 126.5a.53.53 0 0 1 .22.43c0 .14-.12.2-.24.12h0a.54.54 0 0 1-.22-.43c0-.14.12-.2.24-.12z" fill="url(#Z)"/><path d="M151.5 125.48a.53.53 0 0 1 .2.43.14.14 0 0 1-.24.1h0a.52.52 0 0 1-.2-.44c0-.12.12-.16.24-.1z" fill="url(#a)"/><path d="M150.7 83.42a.52.52 0 0 1 .23.35c0 .17 0 .27-.18.23h-.06a.56.56 0 0 1-.24-.36c0-.16.06-.26.2-.22z" fill="url(#b)"/><path d="M150.1 124.34a.48.48 0 0 1 .17.43c0 .12-.12.14-.23.08h-.06a.51.51 0 0 1-.18-.44c0-.1.13-.14.24-.07z" fill="url(#c)"/><path d="M149.28 83a.54.54 0 0 1 .23.34c0 .16 0 .28-.17.25h-.07a.6.6 0 0 1-.23-.34c0-.17 0-.28.17-.25z" fill="url(#d)"/><path d="M148.7 123.08a.48.48 0 0 1 .15.44c0 .1-.12.12-.23.06h-.07a.47.47 0 0 1-.15-.45c0-.1.12-.12.23-.06z" fill="url(#e)"/><path d="M146.08 120.27a.43.43 0 0 1 .1.44c0 .07-.13.07-.22 0l-.1-.1a.42.42 0 0 1-.1-.43.15.15 0 0 1 .22 0 .5.5 0 0 1 .11.09z" fill="url(#f)"/><path d="M144.06 82.9a.62.62 0 0 1 .21.24c.07.17 0 .33-.07.35a.19.19 0 0 1-.14 0 .58.58 0 0 1-.2-.23c-.07-.17-.05-.33.07-.35a.2.2 0 0 1 .13-.01z" fill="url(#g)"/><path d="M143.66 117.1c.1.16.13.35.05.42s-.12 0-.2 0a.43.43 0 0 1-.14-.13h0c-.1-.15-.13-.33-.05-.4a.15.15 0 0 1 .19 0 .58.58 0 0 1 .15.12z" fill="url(#h)"/><path d="M140 85.26c.1.15.13.34.05.42a.18.18 0 0 1-.2 0 .47.47 0 0 1-.14-.14c-.1-.16-.13-.34-.05-.42a.15.15 0 0 1 .19 0 .4.4 0 0 1 .15.14z" fill="url(#i)"/><path d="M138.7 108a.62.62 0 0 1 .21.26c.07.17 0 .32-.1.33a.15.15 0 0 1-.11 0 .5.5 0 0 1-.21-.26c-.07-.18 0-.33.08-.34a.27.27 0 0 1 .12.01z" fill="url(#j)"/><path d="M138.42 87.13a.38.38 0 0 1 .1.43c0 .07-.12.07-.2 0l-.1-.1a.43.43 0 0 1-.1-.44c0-.07.12-.07.2 0a.26.26 0 0 1 .11.1z" fill="url(#k)"/><path d="M136.94 102.46a.49.49 0 0 1 .23.32c0 .17 0 .3-.16.26h-.08a.52.52 0 0 1-.22-.33c-.05-.17 0-.28.16-.25a.11.11 0 0 1 .07 0z" fill="url(#l)"/><path d="M136.8 101c0 .17-.05.26-.18.22h-.06a.52.52 0 0 1-.23-.35c0-.17 0-.27.18-.23h.05a.57.57 0 0 1 .24.36z" fill="url(#m)"/><path d="M136.55 99.2c0 .16-.07.25-.2.2h0a.55.55 0 0 1-.24-.38c0-.16.08-.25.2-.2h0a.55.55 0 0 1 .24.39z" fill="url(#n)"/><path d="M136.13 96a.54.54 0 0 1-.24-.42c0-.15.1-.2.24-.13h0a.56.56 0 0 1 .24.42c.01.13-.1.13-.24.13z" fill="url(#o)"/><path d="M136.2 94.32a.5.5 0 0 1-.21-.43c0-.13.1-.18.23-.12h0a.53.53 0 0 1 .22.43c0 .14-.12.18-.24.1z" fill="url(#p)"/><path d="M136.37 92.76a.49.49 0 0 1-.19-.43.14.14 0 0 1 .23-.1h.05a.49.49 0 0 1 .19.44c0 .12-.12.16-.24.1z" fill="url(#q)"/><path d="M136.66 91.3a.53.53 0 0 1-.17-.44c0-.1.13-.13.24-.07h.06a.5.5 0 0 1 .17.44c0 .1-.13.14-.24.07z" fill="url(#r)"/><path d="M137.07 89.92a.48.48 0 0 1-.15-.44c0-.1.12-.12.22-.06a.28.28 0 0 1 .09.07.44.44 0 0 1 .14.43c0 .1-.12.1-.22.06z" fill="url(#s)"/><path d="M137.58 88.65a.46.46 0 0 1-.12-.45.14.14 0 0 1 .21 0 .19.19 0 0 1 .1.08.43.43 0 0 1 .13.43c0 .1-.13.1-.22 0z" fill="url(#t)"/><path d="M171.76 109.3a.57.57 0 0 1-.23-.31c0-.18 0-.3.14-.28a.11.11 0 0 1 .08 0 .5.5 0 0 1 .23.31c.05.17 0 .3-.14.28z" fill="url(#u)"/><path d="M172 110.8c0-.17 0-.28.17-.25h.06a.52.52 0 0 1 .24.33c0 .17 0 .3-.17.25h-.06a.58.58 0 0 1-.24-.33z" fill="url(#v)"/><path d="M172.33 112.6c0-.17.06-.26.2-.22h0a.56.56 0 0 1 .23.36c0 .17-.06.26-.2.22h0a.51.51 0 0 1-.23-.36z" fill="url(#w)"/><path d="M172.77 114.17h0a.5.5 0 0 1 .24.38c0 .16-.08.24-.2.2h0a.54.54 0 0 1-.24-.39c-.02-.15.08-.24.2-.18z" fill="url(#x)"/><path d="M172.94 117a.53.53 0 0 1 .24.42c0 .16-.1.22-.24.15a.53.53 0 0 1-.24-.43c0-.14.1-.26.24-.14z" fill="url(#y)"/><path d="M172.9 115.92h0a.59.59 0 0 1 .24.4h0c0 .16-.1.23-.23.16h0a.53.53 0 0 1-.24-.4c-.01-.17.1-.23.23-.16z" fill="url(#z)"/><path d="M143.93 95.9l.07.1 1.82 1.8a.52.52 0 0 1 .16.36v.08c0 .1-.13.1-.23 0l-.08-.06-1.82-1.8a.5.5 0 0 1-.16-.35V96c.05-.14.14-.15.24-.1z" fill="url(#AA)"/><path d="M144.34 95l.1.1 1.75 2a.53.53 0 0 1 .14.34v.1a.15.15 0 0 1-.23 0l-.1-.08-1.75-2a.53.53 0 0 1-.14-.34V95c.05-.01.14-.01.23-.01z" fill="url(#AB)"/><path d="M160.7 117.93a.51.51 0 0 1 .18.2l1.28 2.4a.46.46 0 0 1 .06.22.16.16 0 0 1-.08.16.21.21 0 0 1-.17 0 .49.49 0 0 1-.17-.2l-1.28-2.4a.52.52 0 0 1-.06-.22.16.16 0 0 1 .08-.16.19.19 0 0 1 .16 0z" fill="url(#AC)"/><g class="A"><path d="M141.33 113.52a.52.52 0 0 1 .18.18c.1.17.1.34 0 .4a.18.18 0 0 1-.17 0 .59.59 0 0 1-.17-.18c-.1-.17-.1-.35 0-.4a.21.21 0 0 1 .16 0z" fill="url(#AD)"/><path d="M142.54 115.44c.1.16.12.34 0 .4a.17.17 0 0 1-.18 0 .37.37 0 0 1-.17-.16c-.1-.16-.1-.34 0-.4a.19.19 0 0 1 .19 0 .39.39 0 0 1 .16.16z" fill="url(#AE)"/><path d="M140.36 111.72a.49.49 0 0 1 .19.21c.08.17.07.34 0 .38a.24.24 0 0 1-.16 0 .54.54 0 0 1-.18-.21c-.1-.17-.07-.33 0-.38a.21.21 0 0 1 .15 0z" fill="url(#AF)"/><path d="M139.48 109.9a.58.58 0 0 1 .2.23c.08.17 0 .33-.06.35a.19.19 0 0 1-.14 0 .51.51 0 0 1-.2-.23c-.07-.17-.05-.33.06-.36a.27.27 0 0 1 .14.01z" fill="url(#AG)"/><path d="M144.84 118.73a.4.4 0 0 1 .07.43c0 .06-.12.06-.2 0a.49.49 0 0 1-.13-.12c-.1-.14-.15-.33-.08-.42a.16.16 0 0 1 .21 0 .71.71 0 0 1 .13.11z" fill="url(#AH)"/><path d="M138 106.17a.53.53 0 0 1 .22.28c.06.17 0 .3-.1.3h-.1a.52.52 0 0 1-.21-.27c-.07-.18 0-.32.1-.3a.2.2 0 0 1 .11-.01z" fill="url(#AI)"/><path d="M147.37 121.73a.45.45 0 0 1 .13.43c0 .08-.13.1-.23 0l-.1-.07a.52.52 0 0 1-.13-.45.15.15 0 0 1 .22 0 .28.28 0 0 1 .1.09z" fill="url(#AJ)"/><path d="M154.34 127.4a.54.54 0 0 1 .24.41c0 .16-.1.22-.24.14a.5.5 0 0 1-.24-.42c0-.15.1-.2.24-.13z" fill="url(#AK)"/><path d="M148.6 111.2a.43.43 0 0 1 .15.15.48.48 0 0 1 .09.26.21.21 0 0 1-.05.15l-1.24 1h-.2a.53.53 0 0 1-.15-.15.48.48 0 0 1-.09-.27.17.17 0 0 1 .06-.14l1.23-1a.17.17 0 0 1 .19 0z" fill="url(#AL)"/><path d="M147.36 109.07a.49.49 0 0 1 .19.21.54.54 0 0 1 0 .21.16.16 0 0 1-.08.16l-1.5.57a.18.18 0 0 1-.16 0 .56.56 0 0 1-.19-.21.61.61 0 0 1-.06-.21.17.17 0 0 1 .09-.16l1.5-.58a.24.24 0 0 1 .21.01z" fill="url(#AM)"/><path d="M149.3 112.22a.53.53 0 0 1 .24.41.2.2 0 0 1 0 .14L148.4 114c0 .06-.12.06-.2 0a.3.3 0 0 1-.13-.12.55.55 0 0 1-.11-.3.18.18 0 0 1 0-.13l1.1-1.2c.1-.07.16-.07.24-.02z" fill="url(#AN)"/><path d="M150.05 113.18a.35.35 0 0 1 .12.1.51.51 0 0 1 .12.32v.1l-.94 1.4a.13.13 0 0 1-.2 0l-.12-.1a.55.55 0 0 1-.13-.32v-.12l.94-1.4c.04-.04.16-.04.2.01z" fill="url(#AO)"/><path d="M146.37 106.84a.5.5 0 0 1 .21.26v.16c0 .1 0 .16-.12.16l-1.7.12h-.12a.59.59 0 0 1-.21-.27v-.15a.16.16 0 0 1 .12-.17l1.7-.1a.28.28 0 0 1 .12 0z" fill="url(#AP)"/><path d="M150.84 114.07l.1.08a.5.5 0 0 1 .15.34v.1l-.77 1.6c0 .1-.13.1-.22 0l-.1-.07a.57.57 0 0 1-.15-.35v-.1l.77-1.6c.04-.07.13-.07.23 0z" fill="url(#AQ)"/><path d="M146 105.7a.53.53 0 0 1 .24.36c0 .14 0 .24-.14.23l-1.78-.13h-.1a.5.5 0 0 1-.22-.29c-.06-.18 0-.3.12-.3l1.78.13z" fill="url(#AR)"/><path d="M152.5 115.65h.05a.47.47 0 0 1 .19.38v.06l-.42 1.93c0 .12-.13.15-.24.1h-.05a.5.5 0 0 1-.19-.38v-.06l.42-1.93c.03-.13.13-.16.24-.1z" fill="url(#AS)"/><path d="M153.36 116.3h0a.53.53 0 0 1 .22.4h0l-.23 2.07a.15.15 0 0 1-.24.11h0a.55.55 0 0 1-.21-.4h0l.23-2.08a.15.15 0 0 1 .23-.1z" fill="url(#AT)"/><path d="M145.3 102.4a.55.55 0 0 1 .24.38h0c0 .14-.1.2-.2.16l-1.92-.82a.55.55 0 0 1-.24-.38h0c0-.14.1-.2.2-.16l1.92.82z" fill="url(#AU)"/><path d="M154.25 116.9a.53.53 0 0 1 .23.41l-.06 2.2c0 .15-.1.2-.24.13a.54.54 0 0 1-.24-.42L154 117c0-.13.14-.16.25-.1z" fill="url(#AV)"/><path d="M145.23 101.36a.52.52 0 0 1 .23.4h0c0 .15-.1.2-.23.14l-1.94-1a.55.55 0 0 1-.24-.4h0c0-.14.1-.2.24-.14l1.93 1z" fill="url(#AW)"/><path d="M155.1 117.38a.56.56 0 0 1 .25.4l.12 2.3c0 .14-.1.2-.23.14h0a.5.5 0 0 1-.23-.4l-.12-2.3c0-.14.1-.2.22-.14z" fill="url(#AX)"/><path d="M156 117.77a.55.55 0 0 1 .24.38l.3 2.37c0 .13-.1.2-.2.15h0a.55.55 0 0 1-.24-.37l-.3-2.38c0-.13.08-.2.2-.15z" fill="url(#AY)"/><path d="M156.85 118.06a.57.57 0 0 1 .23.35l.48 2.43v.08c0 .12-.08.2-.2.16h-.06a.57.57 0 0 1-.23-.35l-.48-2.43v-.08c0-.12.08-.2.2-.16z" fill="url(#AZ)"/><path d="M157.7 118.25a.53.53 0 0 1 .23.31l.65 2.48v.1c0 .1-.06.18-.16.17h-.08a.5.5 0 0 1-.23-.31l-.65-2.47v-.1c0-.12.07-.2.16-.17a.16.16 0 0 1 .08-.01z" fill="url(#Aa)"/><path d="M158.5 118.33a.48.48 0 0 1 .22.29l.83 2.48v.14c0 .1-.05.17-.14.17h-.1a.53.53 0 0 1-.22-.28l-.82-2.5v-.13c0-.1.05-.17.14-.17a.17.17 0 0 1 .09-.01z" fill="url(#Ab)"/><path d="M159.27 118.3a.5.5 0 0 1 .21.26l1 2.48v.16c0 .1-.05.16-.12.17h-.13a.56.56 0 0 1-.21-.26l-1-2.48v-.16c0-.1 0-.16.12-.17a.27.27 0 0 1 .13 0z" fill="url(#Ac)"/><path d="M143.62 96.9h.06l1.88 1.62a.61.61 0 0 1 .18.38v.1c0 .12-.12.14-.23.08h-.06l-1.88-1.63a.52.52 0 0 1-.18-.37V97c.02-.15.12-.18.23-.1z" fill="url(#Ad)"/><path d="M144.83 94.2a.4.4 0 0 1 .12.11l1.67 2.08a.61.61 0 0 1 .12.31v.12c0 .07-.12.07-.2 0l-.12-.1-1.67-2.08a.51.51 0 0 1-.11-.31v-.12c.03-.05.1-.05.2 0z" fill="url(#Ae)"/><path d="M160 118.17a.5.5 0 0 1 .19.23l1.14 2.45a.51.51 0 0 1 0 .2c0 .08 0 .15-.1.16a.19.19 0 0 1-.14 0 .42.42 0 0 1-.09-.21l-1.14-2.46a.49.49 0 0 1-.05-.19.17.17 0 0 1 .1-.17.21.21 0 0 1 .09-.01z" fill="url(#Af)"/><path d="M145.4 93.52a.43.43 0 0 1 .14.13l1.57 2.2a.56.56 0 0 1 .1.29.19.19 0 0 1-.05.13h-.2a.55.55 0 0 1-.14-.13L145.26 94a.59.59 0 0 1-.1-.29.22.22 0 0 1 .05-.14s.12-.1.2-.05z" fill="url(#Ag)"/><path d="M146.07 93a.48.48 0 0 1 .16.16l1.45 2.3a.56.56 0 0 1 .08.26.19.19 0 0 1-.06.15.19.19 0 0 1-.18 0 .53.53 0 0 1-.16-.17l-1.45-2.3a.48.48 0 0 1-.09-.26.14.14 0 0 1 .07-.14s.1-.1.18 0z" fill="url(#Ah)"/><path d="M146.8 92.48a.55.55 0 0 1 .18.19l1.33 2.4c.1.16.08.34 0 .4a.15.15 0 0 1-.17 0 .53.53 0 0 1-.17-.19l-1.34-2.4a.36.36 0 0 1-.05-.32c.03-.1.12-.12.22-.07z" fill="url(#Ai)"/><path d="M161.32 117.6a.52.52 0 0 1 .16.17l1.42 2.34a.59.59 0 0 1 .07.24c0 .12-.06.2-.14.18h-.1a.69.69 0 0 1-.17-.17l-1.4-2.35c-.1-.16-.1-.34 0-.4a.19.19 0 0 1 .17-.01z" fill="url(#Aj)"/><path d="M161.9 117.16a.37.37 0 0 1 .14.14l1.53 2.25a.51.51 0 0 1 .09.27.2.2 0 0 1 0 .14.16.16 0 0 1-.19 0 .64.64 0 0 1-.15-.14l-1.52-2.25a.48.48 0 0 1-.1-.28.2.2 0 0 1 0-.14.17.17 0 0 1 .2.01z" fill="url(#Ak)"/><path d="M147.6 92.15a.52.52 0 0 1 .19.22l1.2 2.44a.53.53 0 0 1 0 .2.15.15 0 0 1-.1.16.17.17 0 0 1-.15 0 .52.52 0 0 1-.19-.22l-1.2-2.44a.53.53 0 0 1 0-.2.17.17 0 0 1 .09-.17.21.21 0 0 1 .15.01z" fill="url(#Al)"/><path d="M162.4 116.62a.49.49 0 0 1 .13.12l1.63 2.13a.55.55 0 0 1 .11.3.18.18 0 0 1 0 .13c0 .06-.12.06-.2 0a.29.29 0 0 1-.13-.12l-1.63-2.13a.53.53 0 0 1-.11-.3.25.25 0 0 1 0-.13.18.18 0 0 1 .2 0z" fill="url(#Am)"/><path d="M148.47 91.94a.57.57 0 0 1 .2.25l1 2.48a.38.38 0 0 1 0 .17c0 .1 0 .16-.1.17a.17.17 0 0 1-.13 0 .57.57 0 0 1-.2-.25l-.53-1.23-.52-1.24a.65.65 0 0 1 0-.18.16.16 0 0 1 .11-.17z" fill="url(#An)"/><path d="M149.38 91.86a.53.53 0 0 1 .22.28l.88 2.48v.15c0 .1 0 .17-.13.17h-.1a.48.48 0 0 1-.21-.27l-.9-2.5v-.14c0-.1.05-.17.13-.17a.2.2 0 0 1 .11 0z" fill="url(#Ao)"/><path d="M150.34 91.9a.54.54 0 0 1 .23.3l.72 2.5v.12c0 .1-.06.18-.15.17h-.1a.47.47 0 0 1-.22-.29l-.73-2.5v-.1c0-.1.06-.18.15-.17a.16.16 0 0 1 .09-.01z" fill="url(#Ap)"/><path d="M162.84 116a.33.33 0 0 1 .11.1l1.72 2a.52.52 0 0 1 .13.32v.1c0 .07-.12.08-.2 0l-.1-.1-1.72-2a.58.58 0 0 1-.13-.33v-.1a.15.15 0 0 1 .21 0z" fill="url(#Aq)"/><path d="M163.48 114.5a.18.18 0 0 1 .07.05l1.86 1.7a.5.5 0 0 1 .18.36v.07c0 .1-.13.13-.23.07h-.07l-1.87-1.7a.57.57 0 0 1-.17-.37v-.07a.14.14 0 0 1 .23-.12z" fill="url(#Ar)"/><path d="M151.35 92.08a.54.54 0 0 1 .23.34l.54 2.44v.1c0 .12-.07.2-.18.16h-.07a.55.55 0 0 1-.23-.32l-.55-2.46v-.08c0-.12.06-.2.17-.17z" fill="url(#As)"/><path d="M163.2 115.3l.1.07 1.8 1.86a.55.55 0 0 1 .15.34v.1c0 .1-.13.1-.22 0l-.1-.07-1.8-1.86a.48.48 0 0 1-.15-.34v-.1c.02-.03.12-.05.22.01z" fill="url(#At)"/><path d="M163.7 113.63h.05l1.9 1.52a.56.56 0 0 1 .19.39v.05c0 .12-.13.15-.24.08h0l-1.9-1.52a.54.54 0 0 1-.19-.38h0a.14.14 0 0 1 .2-.14z" fill="url(#Au)"/><path d="M152.37 92.38a.49.49 0 0 1 .24.36l.37 2.4v.06c0 .13-.08.2-.2.16h0a.51.51 0 0 1-.24-.36l-.38-2.4v-.06c0-.13.08-.2.2-.15z" fill="url(#Av)"/><path d="M163.8 112.7h0l1.93 1.32a.53.53 0 0 1 .22.4h0c0 .14-.12.2-.24.12h0l-1.93-1.32a.53.53 0 0 1-.21-.4h0a.14.14 0 0 1 .23-.12z" fill="url(#Aw)"/><path d="M153.42 92.8a.52.52 0 0 1 .24.38l.2 2.33c0 .14-.1.2-.22.15h0a.54.54 0 0 1-.24-.39l-.22-2.28c0-.14.1-.2.22-.15z" fill="url(#Ax)"/><path d="M153.92 97.76v1.43c-3.1-1.42-5.52.2-5.53 3.86a13.54 13.54 0 0 0 6.14 10.63c3.4 2 6.16.4 6.17-3.52a13.66 13.66 0 0 0-5.36-10.16v-1.4c3.7 2.6 6.6 7.88 6.6 12.28 0 4.7-3.34 6.58-7.43 4.22a16.26 16.26 0 0 1-7.37-12.77c.02-4.44 3-6.33 6.8-4.57z" fill="url(#Ay)"/><path d="M165.8 112.84a.54.54 0 0 1 .24.42c0 .15-.1.22-.24.14l-1.94-1.12a.52.52 0 0 1-.24-.42c0-.15.1-.2.24-.14z" fill="url(#Az)"/><path d="M154.48 93.35a.51.51 0 0 1 .24.42V96c0 .15-.1.22-.24.14a.52.52 0 0 1-.24-.42V93.5c0-.15.1-.22.24-.14z" fill="url(#BA)"/><path d="M155.53 94h0a.54.54 0 0 1 .22.4h0l-.17 2.13c0 .14-.12.18-.24.1h0a.54.54 0 0 1-.22-.4h0l.18-2.12c.01-.12.1-.2.23-.12z" fill="url(#BB)"/><path d="M165.65 110.6a.54.54 0 0 1 .24.37v.04c0 .13-.08.2-.2.15l-1.9-.73h-.05a.54.54 0 0 1-.24-.37V110c0-.13.1-.2.2-.16l1.92.74z" fill="url(#BC)"/><path d="M165.42 109.27a.54.54 0 0 1 .24.34v.08c0 .12-.07.2-.18.16l-1.87-.5h-.06a.53.53 0 0 1-.23-.34v-.08c0-.12.07-.2.18-.16l1.87.5z" fill="url(#BD)"/><path d="M157.62 95.64h.06a.54.54 0 0 1 .18.37v.07l-.54 1.92c0 .1-.12.13-.23.06L157 98a.55.55 0 0 1-.17-.37v-.07l.53-1.84c.06-.12.15-.14.26-.08z" fill="url(#BE)"/><path d="M169.8 117.46l1.16.67c-.9 9-7.94 12.38-16.45 7.47-9.12-5.27-16.48-18-16.45-28.5 0-8.42 4.82-12.8 11.43-11.45V87c-6-1-10.32 3-10.34 10.73 0 9.74 6.85 21.65 15.33 26.55 7.88 4.56 14.42 1.47 15.32-6.82z" fill="url(#BF)"/><path d="M165.1 107.92a.57.57 0 0 1 .23.31v.1c0 .1-.06.18-.16.17l-1.82-.27h-.08a.57.57 0 0 1-.23-.31v-.1c0-.1.06-.18.16-.17l1.8.27z" fill="url(#BG)"/><path d="M158.62 96.6l.1.07a.57.57 0 0 1 .15.35v.1l-.7 1.68c0 .1-.13.1-.23 0l-.08-.07a.53.53 0 0 1-.16-.35v-.1l.35-.83.35-.84c.04-.04.13-.05.23 0z" fill="url(#BH)"/><path d="M164.7 106.56a.55.55 0 0 1 .22.29v.13c0 .1-.06.18-.14.18h-1.85a.53.53 0 0 1-.22-.28v-.14a.15.15 0 0 1 .14-.17h1.75a.19.19 0 0 1 .1-.01z" fill="url(#BI)"/><path d="M164.2 105.2a.59.59 0 0 1 .21.25v.17c0 .1 0 .16-.12.17l-1.66.2h-.12a.53.53 0 0 1-.21-.25v-.16c0-.1 0-.17.12-.17l1.66-.2z" fill="url(#BJ)"/><path d="M160.52 98.78a.68.68 0 0 1 .12.12.5.5 0 0 1 .12.3.18.18 0 0 1 0 .13l-1 1.3a.15.15 0 0 1-.21 0 .71.71 0 0 1-.13-.12.5.5 0 0 1-.11-.3.16.16 0 0 1 0-.12l1-1.3a.16.16 0 0 1 .21-.01z" fill="url(#BK)"/><path d="M163.6 103.85a.31.31 0 0 1 .11.09.55.55 0 0 1 .13.33c0 .1 0 .15-.1.17l-1.54.42a.27.27 0 0 1-.15 0 .59.59 0 0 1-.19-.22.39.39 0 0 1 0-.2c0-.1 0-.15.1-.17h.04l.37-.1.34-.1.22-.06.57-.16a.19.19 0 0 1 .1 0z" fill="url(#BL)"/><path d="M161.4 100a.37.37 0 0 1 .14.14.45.45 0 0 1 .1.27.23.23 0 0 1 0 .15l-1.18 1.1c-.05.05-.12 0-.2 0a.47.47 0 0 1-.14-.14.48.48 0 0 1-.1-.28.2.2 0 0 1 0-.14l1.18-1.1a.15.15 0 0 1 .2 0z" fill="url(#BM)"/><path d="M162.93 102.52a.53.53 0 0 1 .19.2.49.49 0 0 1 .06.22.18.18 0 0 1-.08.16l-1.45.66a.19.19 0 0 1-.17 0 .4.4 0 0 1-.17-.19.52.52 0 0 1-.06-.22c0-.08 0-.14.08-.16l1.44-.66a.18.18 0 0 1 .16-.01z" fill="url(#BN)"/><path d="M165.76 111.86a.56.56 0 0 1 .25.41h0c0 .14-.1.2-.22.14l-1.93-.94a.56.56 0 0 1-.25-.4h0c0-.15.1-.2.23-.15l1.93 1z" fill="url(#BO)"/><path d="M140.84 98.7c0 8.72 6.1 19.33 13.7 23.7 7 4 12.77 1.36 13.65-5.9l1.14.66c-.9 8-7.22 10.95-14.83 6.55-8.2-4.73-14.87-16.27-14.84-25.73 0-7.38 4.13-11.33 9.85-10.42v1.45c-5.06-.57-8.64 3.05-8.66 9.68z" fill="url(#BP)"/><path d="M158.7 92.55c5.77 5.24 10.1 13.57 10.66 21l-1.13-.65c-.56-6.68-4.4-14.12-9.53-18.94z" fill="url(#BQ)"/><path d="M148 110.16a.18.18 0 0 0-.17 0l-1.37.8a.18.18 0 0 0-.07.16.47.47 0 0 0 .07.24.59.59 0 0 0 .17.18.22.22 0 0 0 .17 0l1.37-.8s.07-.08.07-.15a.47.47 0 0 0-.07-.24.42.42 0 0 0-.17-.18z" fill="url(#BR)"/><path d="M146.83 108a.54.54 0 0 1 .2.24.39.39 0 0 1 0 .18.17.17 0 0 1-.11.17l-1.6.34a.19.19 0 0 1-.14 0 .58.58 0 0 1-.2-.23.46.46 0 0 1 0-.19.17.17 0 0 1 .11-.17l1.6-.34a.19.19 0 0 1 .14 0z" fill="url(#BS)"/><path d="M151.65 114.9l.08.06a.55.55 0 0 1 .17.36v.08l-.6 1.78c0 .1-.13.12-.23.06l-.08-.06a.52.52 0 0 1-.16-.36v-.08l.6-1.77c.03-.1.12-.13.22-.07z" fill="url(#BT)"/><path d="M145.67 104.6a.5.5 0 0 1 .23.33v.1c0 .1-.07.2-.17.17l-1.84-.36h-.08a.58.58 0 0 1-.23-.33v-.1c0-.12.06-.2.17-.17l1.84.36z" fill="url(#BU)"/><path d="M145.45 103.5a.56.56 0 0 1 .23.35v.06c0 .13-.07.2-.2.17l-1.9-.6a.53.53 0 0 1-.24-.35V103c0-.13.07-.2.2-.17l1.88.6z" fill="url(#BV)"/><path d="M143.3 99.12h0l1.94 1.24a.53.53 0 0 1 .22.41h0c0 .14-.1.2-.24.12h0l-1.94-1.24a.56.56 0 0 1-.22-.41h0c0-.15.1-.24.24-.12z" fill="url(#BW)"/><path d="M143.4 98h0l1.92 1.44a.55.55 0 0 1 .21.39h0a.14.14 0 0 1-.24.1h0l-1.92-1.44a.55.55 0 0 1-.21-.4h0c.02-.15.12-.2.24-.1z" fill="url(#BX)"/><path d="M139.18 86.13a.39.39 0 0 1 .08.43c0 .06-.13 0-.2 0l-.13-.1c-.1-.15-.15-.34-.07-.43s.12 0 .2 0a.71.71 0 0 1 .13.11z" fill="url(#BY)"/><path d="M165.23 129.7a.44.44 0 0 1 .2.24c.08.16.06.32-.06.34a.15.15 0 0 1-.14 0 .49.49 0 0 1-.23-.29c-.08-.17 0-.33.06-.36a.16.16 0 0 1 .17.07z" fill="url(#BZ)"/><path d="M166.38 129.34a.56.56 0 0 1 .19.21c.08.17.07.34 0 .37a.19.19 0 0 1-.16 0 .44.44 0 0 1-.18-.2c-.1-.17-.08-.34 0-.38a.17.17 0 0 1 .15 0z" fill="url(#Ba)"/><path d="M140.8 84.36a.61.61 0 0 1 .16.16c.1.17.1.34 0 .4a.17.17 0 0 1-.18 0 .49.49 0 0 1-.16-.16c-.1-.16-.1-.35 0-.4a.19.19 0 0 1 .18 0z" fill="url(#Bb)"/><path d="M141.82 83.74a.53.53 0 0 1 .17.19c.1.16.1.33 0 .38a.14.14 0 0 1-.16 0 .52.52 0 0 1-.18-.18c-.1-.17-.1-.34 0-.4h0a.21.21 0 0 1 .17 0z" fill="url(#Bc)"/><path d="M168.45 128.2a.38.38 0 0 1 .16.15c.1.16.1.35 0 .42a.17.17 0 0 1-.18 0 .49.49 0 0 1-.16-.16c-.1-.16-.1-.33 0-.4s.1-.05.18-.01z" fill="url(#Bd)"/><path d="M142.9 83.26a.44.44 0 0 1 .18.2c.1.17.07.34 0 .38a.24.24 0 0 1-.16 0 .47.47 0 0 1-.18-.21c-.1-.17-.08-.34 0-.37a.16.16 0 0 1 .16 0z" fill="url(#Be)"/><path d="M169.5 127.54c.1.15.13.34.05.42a.18.18 0 0 1-.2 0l-.14-.13c-.1-.16-.13-.35-.05-.43a.18.18 0 0 1 .2 0 .47.47 0 0 1 .14.14z" fill="url(#Bf)"/><path d="M145.3 82.72a.56.56 0 0 1 .21.26c.06.17 0 .32-.1.33h-.12a.55.55 0 0 1-.21-.26c-.06-.17 0-.32.08-.33a.21.21 0 0 1 .13 0z" fill="url(#Bg)"/><path d="M146.57 82.67a.57.57 0 0 1 .22.28c.06.18 0 .32-.1.3h-.1a.57.57 0 0 1-.22-.28c-.06-.18 0-.3.12-.3a.19.19 0 0 1 .1 0z" fill="url(#Bh)"/><path d="M147.9 82.77a.57.57 0 0 1 .23.31c.05.17 0 .3-.14.3h-.1a.53.53 0 0 1-.22-.31c-.05-.17 0-.3.13-.28a.16.16 0 0 1 .09-.01z" fill="url(#Bi)"/><path d="M156.6 94.78a.05.05 0 0 1 0 0 .54.54 0 0 1 .2.39h0l-.35 2c0 .12-.12.16-.24.1h0a.54.54 0 0 1-.2-.39h0l.36-2c.01-.13.12-.16.23-.1z" fill="url(#Bj)"/><path d="M159.6 97.65a.5.5 0 0 1 .11.1.49.49 0 0 1 .13.32v.1l-.88 1.5c0 .08-.12.08-.2 0l-.1-.1a.5.5 0 0 1-.13-.33v-.1l.88-1.5c.04-.04.12-.05.2 0z" fill="url(#Bk)"/><path d="M152.12 84a.58.58 0 0 1 .23.39c0 .16-.07.24-.2.18h0a.59.59 0 0 1-.24-.38c0-.17.08-.25.2-.2z" fill="url(#Bl)"/><path d="M162.2 101.23a.46.46 0 0 1 .17.17.47.47 0 0 1 .07.25.19.19 0 0 1-.06.15l-1.32.88a.17.17 0 0 1-.18 0 .44.44 0 0 1-.16-.17.49.49 0 0 1-.08-.24.22.22 0 0 1 .07-.16l1.32-.87a.14.14 0 0 1 .17-.01z" fill="url(#Bm)"/><path d="M153.56 84.63a.53.53 0 0 1 .24.4c0 .16-.1.23-.23.16h0a.55.55 0 0 1-.24-.4c0-.16.1-.23.23-.17z" fill="url(#Bn)"/><path d="M155 85.44a.55.55 0 0 1 .23.42c0 .15-.1.2-.24.14h0a.49.49 0 0 1-.24-.42c0-.15.1-.2.24-.13z" fill="url(#Bo)"/><path d="M156.5 86.4a.53.53 0 0 1 .21.43c0 .14-.12.18-.24.1h0a.55.55 0 0 1-.22-.43c0-.14.12-.18.25-.1z" fill="url(#Bp)"/><path d="M157.94 87.47a.54.54 0 0 1 .2.43c0 .13-.13.16-.24.1h-.05a.53.53 0 0 1-.19-.43c0-.13.12-.17.24-.1z" fill="url(#Bq)"/><path d="M160.78 90a.48.48 0 0 1 .15.44c0 .1-.13.12-.23.06l-.08-.06a.5.5 0 0 1-.15-.44c0-.1.14-.1.24-.06z" fill="url(#Br)"/><path d="M162.15 91.4a.44.44 0 0 1 .12.44c0 .08-.13.1-.22 0l-.1-.07a.45.45 0 0 1-.12-.44c0-.08.13-.1.22 0a.35.35 0 0 1 .1.07z" fill="url(#Bs)"/><path d="M171.4 107.15c.06.17 0 .3-.12.3h-.1a.59.59 0 0 1-.22-.29c-.05-.17 0-.3.12-.3a.19.19 0 0 1 .1 0 .53.53 0 0 1 .22.28z" fill="url(#Bt)"/><path d="M158.7 90.63c6.68 5.8 11.7 15.38 12.3 23.84l-1.16-.66c-.58-7.72-5.1-16.42-11.15-21.84z" fill="url(#Bu)"/><path d="M163.47 92.9a.41.41 0 0 1 .09.43c0 .07-.12.08-.2 0l-.12-.1c-.1-.15-.16-.34-.1-.44s.12-.07.2 0a.53.53 0 0 1 .12.11z" fill="url(#Bv)"/><path d="M170.73 105.26c.07.17 0 .32-.1.33h-.12a.56.56 0 0 1-.21-.26c-.07-.18 0-.32.1-.33a.18.18 0 0 1 .12 0 .55.55 0 0 1 .21.26z" fill="url(#Bw)"/><path d="M164.73 94.5a.4.4 0 0 1 .07.43.15.15 0 0 1-.2 0 .49.49 0 0 1-.13-.12c-.12-.15-.15-.34-.08-.42a.16.16 0 0 1 .21 0 .71.71 0 0 1 .13.11z" fill="url(#Bx)"/><path d="M170 103.38h0c.07.17 0 .32-.06.35a.19.19 0 0 1-.14 0 .49.49 0 0 1-.2-.24c-.07-.17-.05-.33.07-.34a.17.17 0 0 1 .13 0 .51.51 0 0 1 .2.23z" fill="url(#By)"/><path d="M165.93 96.16c.1.16.12.35 0 .42a.16.16 0 0 1-.2 0 .47.47 0 0 1-.14-.14c-.1-.16-.13-.34 0-.42a.15.15 0 0 1 .19 0 .44.44 0 0 1 .15.14z" fill="url(#Bz)"/><path d="M168.88 101.3a.6.6 0 0 1 .19.22c.1.17.07.33 0 .37a.16.16 0 0 1-.15 0 .61.61 0 0 1-.2-.22c-.08-.16-.06-.33 0-.37a.16.16 0 0 1 .16 0z" fill="url(#CA)"/><path d="M166.9 97.73a.55.55 0 0 1 .17.17c.1.16.1.34 0 .4a.19.19 0 0 1-.19 0 .53.53 0 0 1-.16-.17c-.1-.15-.1-.33 0-.4a.19.19 0 0 1 .18 0z" fill="url(#CB)"/><path d="M167.93 99.5a.47.47 0 0 1 .18.19c.1.16.1.33 0 .38a.17.17 0 0 1-.17 0 .53.53 0 0 1-.17-.19c-.1-.16-.1-.34 0-.4a.14.14 0 0 1 .16.01z" fill="url(#CC)"/><path d="M154.67 77.9c13.08 7.55 23.78 25.3 24.85 40.63l-4.2-2.43c-1.06-12.67-9.9-27.17-20.65-33.38-11.5-6.64-20.86-1.3-20.9 11.9s9.26 29.3 20.76 36c10.6 6.12 19.36 2.06 20.7-9l4.23 2.44c-1.37 13.67-12 18.8-25 11.33-13.82-8-25-27.32-24.95-43.2s11.34-22.28 25.16-14.3z" fill="url(#CD)"/></g><path d="M171.6 124.36c.12.13.2.33.13.43s-.13.1-.22 0l-.1-.08a.45.45 0 0 1-.13-.43c0-.1.13-.1.23 0a.32.32 0 0 1 .09.08z" fill="url(#CE)"/><path d="M137.42 104.3a.61.61 0 0 1 .22.31c.05.17 0 .3-.13.28h-.1a.54.54 0 0 1-.22-.3c-.05-.17 0-.3.14-.3a.16.16 0 0 1 .09 0z" fill="url(#CF)"/><path d="M136.18 97.65h0a.54.54 0 0 1-.25-.4c0-.16.1-.23.23-.16h0a.51.51 0 0 1 .24.39c.02.17-.1.24-.22.17z" fill="url(#CG)"/></g><g class="D"><g class="DS"><path d="M197.28 86.35v1.87a1.43 1.43 0 0 1-2.14 1.23l-8.8-5.07a1.41 1.41 0 0 1-.71-1.23v-1.87a1.42 1.42 0 0 1 2.14-1.23l8.8 5.07a1.41 1.41 0 0 1 .7 1.23zm27.88 25.23v1.87a1.43 1.43 0 0 1-2.14 1.23l-36.68-21a1.44 1.44 0 0 1-.71-1.24v-1.9a1.43 1.43 0 0 1 2.13-1.24l36.68 21a1.43 1.43 0 0 1 .72 1.27z"/></g><g opacity=".53"><path d="M210 121.46v1.87a1.42 1.42 0 0 1-2.13 1.24L186.3 112.2a1.44 1.44 0 0 1-.72-1.24v-1.87a1.43 1.43 0 0 1 2.14-1.23l21.55 12.35a1.43 1.43 0 0 1 .72 1.24z" class="DS"/></g><path d="M219.47 117.6v1.87a1.43 1.43 0 0 1-2.14 1.24l-31-17.77a1.4 1.4 0 0 1-.72-1.23v-1.87a1.43 1.43 0 0 1 2.14-1.24l31 17.77a1.41 1.41 0 0 1 .72 1.23z" opacity=".3" class="DS"/></g><g class="m"><path class="Cn DS DU" d="M65.44 152.92a1.18 1.18 0 0 1 0 2.23 4.22 4.22 0 0 1-3.85 0 1.18 1.18 0 0 1 0-2.23 4.22 4.22 0 0 1 3.85 0z"/><g class="DV"><path d="M52.77 160.28c1.07.62 1.08 1.62 0 2.23a4.24 4.24 0 0 1-3.86 0 1.18 1.18 0 0 1 0-2.23 4.22 4.22 0 0 1 3.86 0zm-12.67 7.36a1.18 1.18 0 0 1 0 2.24 4.3 4.3 0 0 1-3.86 0 1.18 1.18 0 0 1 0-2.24 4.28 4.28 0 0 1 3.86 0z"/></g><path class="Cn DS DU" d="M27.44 175a1.19 1.19 0 0 1 0 2.24 4.3 4.3 0 0 1-3.86 0 1.18 1.18 0 0 1 0-2.24 4.3 4.3 0 0 1 3.86 0z"/><g class="DV"><path d="M78.05 160.2a1.18 1.18 0 0 1 0 2.23 4.22 4.22 0 0 1-3.85 0c-1.07-.62-1.08-1.62 0-2.23a4.24 4.24 0 0 1 3.85 0zm-12.67 7.36c1.07.62 1.08 1.62 0 2.23a4.24 4.24 0 0 1-3.86 0 1.18 1.18 0 0 1 0-2.23 4.22 4.22 0 0 1 3.86 0z"/></g><g class="Cp DU"><path d="M52.7 174.92a1.18 1.18 0 0 1 0 2.24 4.3 4.3 0 0 1-3.86 0 1.18 1.18 0 0 1 0-2.24 4.25 4.25 0 0 1 3.86 0z" class="DS"/></g><g class="DV"><path d="M40 182.28a1.18 1.18 0 0 1 0 2.24 4.3 4.3 0 0 1-3.86 0 1.18 1.18 0 0 1 0-2.24 4.28 4.28 0 0 1 3.86 0zm50.66-14.8a1.18 1.18 0 0 1 0 2.23 4.24 4.24 0 0 1-3.86 0 1.18 1.18 0 0 1 0-2.23 4.24 4.24 0 0 1 3.86 0zM78 174.84a1.18 1.18 0 0 1 0 2.23 4.22 4.22 0 0 1-3.85 0c-1.07-.62-1.08-1.6 0-2.23a4.24 4.24 0 0 1 3.85 0zm-12.68 7.36a1.18 1.18 0 0 1 0 2.23 4.22 4.22 0 0 1-3.85 0 1.18 1.18 0 0 1 0-2.23 4.24 4.24 0 0 1 3.85 0zm-12.67 7.36a1.18 1.18 0 0 1 0 2.24 4.28 4.28 0 0 1-3.85 0 1.18 1.18 0 0 1 0-2.24 4.28 4.28 0 0 1 3.85 0zm50.62-14.8a1.18 1.18 0 0 1 0 2.23 4.24 4.24 0 0 1-3.86 0 1.18 1.18 0 0 1 0-2.23 4.24 4.24 0 0 1 3.86 0z"/></g><g class="Cp DU"><path d="M90.6 182.12a1.18 1.18 0 0 1 0 2.23 4.24 4.24 0 0 1-3.86 0 1.18 1.18 0 0 1 0-2.23 4.24 4.24 0 0 1 3.86 0z" class="DS"/></g><g class="DV"><path d="M77.93 189.48a1.18 1.18 0 0 1 0 2.23 4.22 4.22 0 0 1-3.85 0 1.18 1.18 0 0 1 0-2.23 4.24 4.24 0 0 1 3.85 0zm-12.67 7.36a1.18 1.18 0 0 1 0 2.24 4.28 4.28 0 0 1-3.85 0 1.18 1.18 0 0 1 0-2.24 4.24 4.24 0 0 1 3.85 0z"/></g></g><path class="Cq DW" d="M40.87 168.9a.76.76 0 0 0 0-.15.71.71 0 0 0 0-.14v-56.9h-5.55v57.2c.13.72 1.32 1.3 2.77 1.28s2.63-.56 2.77-1.28z" fill="url(#CH)"/><path class="Cr DW" d="M66 197.93a.76.76 0 0 0 0-.15.66.66 0 0 0 0-.14v-9.58h-5.53v9.87c.13.72 1.32 1.3 2.77 1.28s2.63-.57 2.77-1.28z" fill="url(#CI)"/><path class="Cs DW" d="M79.05 176.46a.61.61 0 0 0 0-.14v-9.72H73.5v9.86c.12.73 1.32 1.3 2.77 1.3s2.63-.57 2.77-1.3z" fill="url(#CJ)"/><path d="M203.1 224.65l-1.03-.57 4.4-7.98 3.84 1.15 2.73-3.75 3.05-8.72 6.1-10.58 5.03 6.2 4.35-4.7 4.8 1.84 4.38-8.76 7.57-4.54 6.63-12.47 6.8 3.4 4.27-7.83 1.03.56-4.8 8.82-6.8-3.4-6.24 11.75-7.56 4.53-4.7 9.4-5.04-1.94-4.73 5.13-4.8-5.92-5.22 9.05-3.1 8.8-3.27 4.5-3.73-1.12-3.93 7.16z" fill="url(#CK)"/><path d="M210.56 215.35c1.13-.65 2.05-.12 2.05 1.17a4.47 4.47 0 0 1-2 3.53c-1.12.65-2 .13-2-1.17a4.47 4.47 0 0 1 1.95-3.53z" fill="#16c4db"/><use xlink:href="#EG" class="DX"/><path d="M222.35 186.74c1.13-.65 2.05 6.08 2.05 7.38a4.49 4.49 0 0 1-2 3.53c-1.13.65-2 .13-2.05-1.17s.87-9.1 2-9.74z" fill="url(#CL)"/><path d="M222.35 194.24c.5-.3.93-.06.93.53a2 2 0 0 1-.92 1.59c-.5.3-.93.06-.93-.53a2 2 0 0 1 .92-1.59z" class="DX"/><path d="M249.13 181.85c1.13-.66 2.05-.13 2.06 1.17a4.52 4.52 0 0 1-2 3.52c-1.13.66-2.05.13-2.05-1.16a4.46 4.46 0 0 1 1.99-3.53z" fill="#8b68ff"/><path d="M249.14 183.13c.5-.3.92 0 .93.53a2.06 2.06 0 0 1-.93 1.6c-.5.3-.92.06-.92-.53a2 2 0 0 1 .92-1.6z" class="DX"/><path d="M266.08 165.87c1.13-.65 2.05-.13 2.05 1.17a4.47 4.47 0 0 1-2 3.53c-1.12.65-2 .13-2-1.17a4.47 4.47 0 0 1 1.95-3.53z" class="DY"/><use xlink:href="#EG" x="55.53" y="-49.48" class="DX"/><path class="Cx" d="M202.92 192.68v-21.53a.75.75 0 0 1 .4-.67l29.42-16.1a.77.77 0 0 1 1.14.68v21.53a.75.75 0 0 1-.4.67l-29.43 16.08a.76.76 0 0 1-1.13-.67z" opacity=".8" fill="url(#CM)"/><path class="Cy" d="M223 170.84v-22.5a.8.8 0 0 1 .42-.7l30.77-16.82a.8.8 0 0 1 1.18.71V154a.81.81 0 0 1-.41.7l-30.77 16.8a.8.8 0 0 1-1.19-.67z" opacity=".8" fill="url(#CN)"/><g class="DQ"><path d="M212.58 182.93v-.64a.48.48 0 0 0-.73-.42l-3 1.74a.49.49 0 0 0-.25.42v.64a.49.49 0 0 0 .74.42l3-1.74a.47.47 0 0 0 .24-.42zm9.57-8.65v-.65a.49.49 0 0 0-.73-.42l-12.6 7.2a.5.5 0 0 0-.24.43v.64a.49.49 0 0 0 .74.42l12.58-7.2a.48.48 0 0 0 .24-.42z"/></g><g opacity=".53" class="DQ"><path d="M217 170.88v-.64a.49.49 0 0 0-.73-.42l-7.4 4.24a.49.49 0 0 0-.24.42v.64a.49.49 0 0 0 .73.43l7.4-4.24a.5.5 0 0 0 .24-.43z"/></g><path d="M220.2 172.2v-.64a.48.48 0 0 0-.73-.42l-10.64 6.1a.5.5 0 0 0-.24.43v.64a.49.49 0 0 0 .73.42l10.68-6.1a.5.5 0 0 0 .2-.43z" opacity=".3" class="DQ"/><path d="M152 209.08c11 6.36 11.1 16.7.13 23s-28.78 6.37-39.8 0-11.1-16.7-.14-23.06 28.8-6.3 39.8.06z" fill="none" stroke-miterlimit="10" stroke="url(#CO)"/><path d="M147.3 220.92c-.12 2.26-1.72 4.1-3.52 5.33a18.31 18.31 0 0 1-7.35 2.77c-5.13.84-11.1.28-15.53-2.6-2-1.3-3.83-3.33-3.82-5.85 0 1.76-.06-.17 0 1.6.1 4.07 4.45 6.5 7.86 7.58a24.6 24.6 0 0 0 13.13.42c3.55-.87 8.12-2.88 9.1-6.8a14 14 0 0 0 .16-3.29c0-1 0 1.63 0 .6a2.44 2.44 0 0 1-.02.27z" fill="url(#CP)"/><path d="M142.85 214.4c5.92 3.42 6 9 .07 12.4s-15.46 3.42-21.38 0-6-9-.07-12.4 15.46-3.4 21.38 0zm-19.33 11.24c4.82 2.78 12.6 2.78 17.4 0s4.77-7.3 0-10.08-12.62-2.8-17.4 0-4.76 7.3.06 10.08" fill="#dcdcdc"/><path d="M142.85 214.4c5.92 3.42 6 9 .07 12.4s-15.46 3.42-21.38 0-6-9-.07-12.4 15.46-3.4 21.38 0z" fill="url(#CQ)"/><path class="DD DW" d="M143.22 221.34a2.76 2.76 0 0 0 .06-.57 3.31 3.31 0 0 0-.06-.55v-54.54h-21.7v55.66c.5 2.83 5.17 5 10.85 5s10.25-2.22 10.8-5z" fill="url(#CR)"/><path d="M313.58 57.4a3.27 3.27 0 0 1 1.49 2.59c0 1-.67 1.33-1.5.85a3.29 3.29 0 0 1-1.49-2.58c0-.95.68-1.33 1.5-.86z" fill="#009ee0"/><path d="M177.42 12.8a7.21 7.21 0 0 1 3.27 5.66c0 2.08-1.48 2.93-3.3 1.88a7.23 7.23 0 0 1-3.27-5.67c.01-2.08 1.5-2.92 3.3-1.87z" class="DY"/><path d="M234.68 47.65a3.31 3.31 0 0 1 1.49 2.58c0 1-.68 1.34-1.5.86a3.31 3.31 0 0 1-1.5-2.59c.01-.94.68-1.33 1.5-.85z" fill="url(#CS)"/><path d="M314.37 155.32a3.25 3.25 0 0 1 1.49 2.58c0 .95-.67 1.34-1.5.86a3.31 3.31 0 0 1-1.49-2.59c0-.94.68-1.33 1.5-.85z" fill="#ff6b1f"/><path d="M266.7 115.9a3.32 3.32 0 0 1 1.49 2.58c0 1-.68 1.34-1.5.86a3.29 3.29 0 0 1-1.5-2.58c.01-.95.68-1.34 1.5-.86z" fill="url(#CT)"/><path class="DG" d="M205.73 18.15a5.52 5.52 0 1 1-5.52-5.52 5.52 5.52 0 0 1 5.52 5.52z" fill="url(#CU)"/><path class="DH" d="M268.36 56.15a5.52 5.52 0 1 1-5.51-5.51 5.52 5.52 0 0 1 5.51 5.51z" fill="url(#CV)"/><circle class="DI" cx="297.68" cy="147.64" r="6.98" fill="url(#CW)"/><path class="DJ" d="M65.16 46.3a2.35 2.35 0 1 1-2.35-2.3 2.35 2.35 0 0 1 2.35 2.3z" fill="url(#CX)"/><circle class="DK" cx="43.28" cy="97.13" r="3.82" fill="url(#CY)"/><circle class="DL" cx="286.6" cy="178.94" r="3.82" fill="url(#CZ)"/><path class="DM" d="M126 200.58a3.82 3.82 0 1 1-3.82-3.82 3.82 3.82 0 0 1 3.82 3.82z" fill="url(#Ca)"/><path class="DN" d="M39.42 144.1a3.82 3.82 0 1 1-3.82-3.82 3.82 3.82 0 0 1 3.82 3.82z" fill="url(#Cb)"/><path class="DO" d="M137.27 191.08a1.91 1.91 0 1 1-1.91-1.91 1.91 1.91 0 0 1 1.91 1.91z" fill="url(#Cc)"/><path class="DP" d="M142.86 21.66a6.69 6.69 0 1 1-6.69-6.66 6.68 6.68 0 0 1 6.69 6.66z" fill="url(#Cd)"/></g></g></g></svg>